<svg width="50" height="50" viewBox="0 0 50 50" fill="none" xmlns="http://www.w3.org/2000/svg">
<rect x="0.490234" y="0.5" width="49" height="49" rx="24.5" stroke="#757980"/>
<path d="M24.9856 11.9951C25.2699 11.9951 25.5009 12.084 25.6787 12.2618C25.8564 12.4396 25.9453 12.6707 25.9453 12.9551V24.5818L30.3172 20.3151C30.4594 20.1018 30.6727 19.9951 30.957 19.9951C31.2414 19.9951 31.4902 20.084 31.7035 20.2618C31.9167 20.4396 32.0234 20.6707 32.0234 20.9551C32.0234 21.2396 31.9167 21.4885 31.7035 21.7018L25.732 27.6751C25.5187 27.8885 25.2699 27.9951 24.9856 27.9951C24.7012 27.9951 24.4524 27.8885 24.2391 27.6751L18.2677 21.7018C18.0544 21.4885 17.9478 21.2396 17.9478 20.9551C17.9478 20.6707 18.0544 20.4396 18.2677 20.2618C18.4809 20.084 18.7297 19.9951 19.0141 19.9951C19.2984 19.9951 19.5117 20.1018 19.6539 20.3151L24.0259 24.5818V12.9551C24.0259 12.6707 24.1147 12.4396 24.2924 12.2618C24.4702 12.084 24.7012 11.9951 24.9856 11.9951Z" fill="#757980"/>
</svg>
