<svg width="40" height="41" viewBox="0 0 40 41" fill="none" xmlns="http://www.w3.org/2000/svg">
<rect x="0.5" y="0.740234" width="39" height="39" rx="19.5" stroke="#F1FF9D"/>
<path d="M26.0267 14.2276C26.0267 14.0853 25.9734 13.9609 25.8667 13.8542C25.7601 13.7476 25.6356 13.6942 25.4934 13.6942H19.5201C19.3778 13.6942 19.2534 13.7476 19.1467 13.8542C19.0401 13.9609 18.9867 14.0853 18.9867 14.2276C18.9867 14.3698 19.0401 14.4853 19.1467 14.5742C19.2534 14.6631 19.3778 14.7076 19.5201 14.7076H24.2667L14.1334 24.8409C14.0267 24.9476 13.9734 25.072 13.9734 25.2142C13.9734 25.3564 14.0267 25.4809 14.1334 25.5876C14.2401 25.6942 14.3645 25.7476 14.5067 25.7476C14.6489 25.7476 14.7734 25.6942 14.8801 25.5876L25.0134 15.4542V20.2009C25.0134 20.3431 25.0578 20.4676 25.1467 20.5742C25.2356 20.6809 25.3512 20.7342 25.4934 20.7342C25.6356 20.7342 25.7601 20.6809 25.8667 20.5742C25.9734 20.4676 26.0267 20.3431 26.0267 20.2009V14.2276Z" fill="#F1FF9D"/>
</svg>
