<svg width="49" height="51" viewBox="0 0 49 51" fill="none" xmlns="http://www.w3.org/2000/svg">
<rect x="0.540039" y="1.30566" width="46.99" height="46.99" rx="23.495" stroke="white"/>
<path d="M25.3142 33.9775L24.4548 34.8369C24.0642 35.1885 23.4783 35.1885 23.1267 34.8369L15.5486 27.2197C15.158 26.8682 15.158 26.2822 15.5486 25.9307L23.1267 18.3135C23.4783 17.9619 24.1033 17.9619 24.4548 18.3135L25.3142 19.1729C25.7048 19.5635 25.6658 20.1494 25.3142 20.54L20.5876 24.9932H31.8376C32.3455 24.9932 32.7751 25.4229 32.7751 25.9307V27.1807C32.7751 27.7275 32.3455 28.1182 31.8376 28.1182H20.5876L25.3142 32.6104C25.6658 33.001 25.7048 33.5869 25.3142 33.9775Z" fill="white"/>
</svg>
