<svg width="49" height="51" viewBox="0 0 49 51" fill="none" xmlns="http://www.w3.org/2000/svg">
<rect x="0.530029" y="1.30566" width="46.99" height="46.99" rx="23.495" stroke="white"/>
<path d="M22.687 19.1729L23.5464 18.3135C23.937 17.9619 24.5229 17.9619 24.8745 18.3135L32.4917 25.8916C32.8433 26.2822 32.8433 26.8682 32.4917 27.2197L24.8745 34.8369C24.5229 35.1885 23.937 35.1885 23.5464 34.8369L22.687 33.9775C22.3354 33.5869 22.3354 33.001 22.687 32.6104L27.4136 28.1182H16.2026C15.6558 28.1182 15.2651 27.7275 15.2651 27.1807V25.9307C15.2651 25.4229 15.6558 24.9932 16.2026 24.9932H27.4136L22.687 20.54C22.3354 20.1494 22.2964 19.5635 22.687 19.1729Z" fill="white"/>
</svg>
