<svg width="17" height="17" viewBox="0 0 17 17" fill="none" xmlns="http://www.w3.org/2000/svg">
<path d="M14.4677 3.05153C14.4677 2.90931 14.4144 2.78487 14.3078 2.6782C14.2012 2.57153 14.0768 2.5182 13.9347 2.5182H7.96508C7.82295 2.5182 7.69858 2.57153 7.59198 2.6782C7.48538 2.78487 7.43208 2.90931 7.43208 3.05153C7.43208 3.19376 7.48538 3.30931 7.59198 3.3982C7.69858 3.48709 7.82295 3.53153 7.96508 3.53153H12.7088L2.58178 13.6649C2.47518 13.7715 2.42188 13.896 2.42188 14.0382C2.42188 14.1804 2.47518 14.3049 2.58178 14.4115C2.68838 14.5182 2.81274 14.5715 2.95488 14.5715C3.09701 14.5715 3.22138 14.5182 3.32798 14.4115L13.455 4.2782V9.02487C13.455 9.16709 13.4994 9.29153 13.5882 9.3982C13.6771 9.50487 13.7926 9.5582 13.9347 9.5582C14.0768 9.5582 14.2012 9.50487 14.3078 9.3982C14.4144 9.29153 14.4677 9.16709 14.4677 9.02487V3.05153Z" fill="#232327"/>
</svg>
