<svg width="17" height="17" viewBox="0 0 17 17" fill="none" xmlns="http://www.w3.org/2000/svg">
<path d="M14.6969 3.05153C14.6969 2.90931 14.6436 2.78487 14.5369 2.6782C14.4302 2.57153 14.3058 2.5182 14.1636 2.5182H8.19022C8.048 2.5182 7.92355 2.57153 7.81689 2.6782C7.71022 2.78487 7.65689 2.90931 7.65689 3.05153C7.65689 3.19376 7.71022 3.30931 7.81689 3.3982C7.92355 3.48709 8.048 3.53153 8.19022 3.53153H12.9369L2.80355 13.6649C2.69689 13.7715 2.64355 13.896 2.64355 14.0382C2.64355 14.1804 2.69689 14.3049 2.80355 14.4115C2.91022 14.5182 3.03467 14.5715 3.17689 14.5715C3.31911 14.5715 3.44355 14.5182 3.55022 14.4115L13.6836 4.2782V9.02487C13.6836 9.16709 13.728 9.29153 13.8169 9.3982C13.9058 9.50487 14.0213 9.5582 14.1636 9.5582C14.3058 9.5582 14.4302 9.50487 14.5369 9.3982C14.6436 9.29153 14.6969 9.16709 14.6969 9.02487V3.05153Z" fill="white"/>
</svg>
