<svg width="48" height="49" viewBox="0 0 48 49" fill="none" xmlns="http://www.w3.org/2000/svg">
<rect y="0.672852" width="47.99" height="47.99" rx="23.995" fill="black"/>
<path d="M15.987 18.6107L24.2087 24.6068L31.9735 18.6107M32.9728 20.8092V28.4042C32.9728 29.5236 32.973 30.0835 32.7552 30.511C32.5636 30.887 32.2575 31.1927 31.8815 31.3843C31.4541 31.6022 30.8948 31.6023 29.7757 31.6023H18.1853C17.0661 31.6023 16.5061 31.6022 16.0787 31.3843C15.7027 31.1927 15.3972 30.887 15.2056 30.511C14.9878 30.0835 14.9878 29.5236 14.9878 28.4042V20.8092C14.9878 19.6898 14.9878 19.1302 15.2056 18.7027C15.3972 18.3266 15.7027 18.0208 16.0787 17.8292C16.5061 17.6113 17.0661 17.6113 18.1853 17.6113H29.7757C30.8948 17.6113 31.4541 17.6113 31.8815 17.8292C32.2575 18.0208 32.5636 18.3266 32.7552 18.7027C32.973 19.1302 32.9728 19.6898 32.9728 20.8092Z" stroke="white" stroke-width="1.49902" stroke-linecap="round" stroke-linejoin="round"/>
</svg>
