<svg width="48" height="49" viewBox="0 0 48 49" fill="none" xmlns="http://www.w3.org/2000/svg">
<rect y="0.712891" width="47.99" height="47.99" rx="23.995" fill="black"/>
<path d="M23.2123 30.4691L22.6455 31.0473L22.6713 31.0726L22.6993 31.0956L23.2123 30.4691ZM24.7876 30.4691L25.3006 31.0956L25.3315 31.0703L25.3597 31.0421L24.7876 30.4691ZM29.9024 28.3815C29.4795 28.2357 29.0186 28.4603 28.8728 28.8831C28.727 29.3058 28.9516 29.7667 29.3745 29.9125L29.9024 28.3815ZM18.6467 29.9051C19.0699 29.7602 19.2955 29.2999 19.1506 28.8768C19.0057 28.4537 18.5452 28.2282 18.1221 28.3731L18.6467 29.9051ZM23.9999 21.2853C23.4551 21.2853 23.0134 20.8438 23.0134 20.2991H21.3936C21.3936 21.7382 22.5605 22.9048 23.9999 22.9048V21.2853ZM23.0134 20.2991C23.0134 19.7544 23.4551 19.3129 23.9999 19.3129V17.6935C22.5605 17.6935 21.3936 18.8601 21.3936 20.2991H23.0134ZM23.9999 19.3129C24.5447 19.3129 24.9864 19.7544 24.9864 20.2991H26.6062C26.6062 18.8601 25.4393 17.6935 23.9999 17.6935V19.3129ZM24.9864 20.2991C24.9864 20.8438 24.5447 21.2853 23.9999 21.2853V22.9048C25.4393 22.9048 26.6062 21.7382 26.6062 20.2991H24.9864ZM23.7792 29.8908C22.9733 29.1011 21.6602 27.9117 20.5291 26.3784C19.3987 24.8459 18.5225 23.0614 18.5225 21.128H16.9027C16.9027 23.5515 17.9962 25.6729 19.2255 27.3396C20.4542 29.0052 21.8909 30.308 22.6455 31.0473L23.7792 29.8908ZM18.5225 21.128C18.5225 19.6969 19.0974 18.3225 20.1236 17.3078L18.9846 16.1564C17.6527 17.4734 16.9027 19.2616 16.9027 21.128H18.5225ZM20.1236 17.3078C21.1502 16.2928 22.5443 15.721 24 15.721V14.1016C22.1205 14.1016 20.3163 14.8397 18.9846 16.1564L20.1236 17.3078ZM24 15.721C25.4555 15.721 26.8496 16.2928 27.8762 17.3078L29.0152 16.1564C27.6835 14.8397 25.8793 14.1016 24 14.1016V15.721ZM27.8762 17.3078C28.9024 18.3225 29.4773 19.6968 29.4773 21.128H31.0971C31.0971 19.2616 30.3471 17.4734 29.0152 16.1564L27.8762 17.3078ZM29.4773 21.128C29.4773 23.0576 28.5815 24.8569 27.4374 26.4006C26.2927 27.9453 24.9815 29.1316 24.2155 29.8959L25.3597 31.0421C26.0625 30.3408 27.501 29.035 28.7389 27.3647C29.9774 25.6936 31.0971 23.5551 31.0971 21.128H29.4773ZM22.6993 31.0956C22.9062 31.2649 23.1622 31.4915 23.5369 31.597L23.9759 30.0381C23.9753 30.038 23.9761 30.0382 23.9778 30.0388C23.9795 30.0394 23.9808 30.0401 23.9814 30.0404C23.9828 30.0409 23.9767 30.0383 23.9598 30.0269C23.9415 30.0146 23.9155 29.9956 23.8751 29.9637C23.8342 29.9316 23.7877 29.8935 23.7255 29.8426L22.6993 31.0956ZM24.2745 29.8426C24.2123 29.8936 24.1656 29.9317 24.1247 29.9638C24.0843 29.9957 24.0583 30.0146 24.0401 30.0268C24.0233 30.0382 24.0173 30.0408 24.0186 30.0402C24.021 30.0391 24.0239 30.0381 24.0238 30.0381L24.4628 31.597C24.8374 31.4915 25.0929 31.2656 25.3006 31.0956L24.2745 29.8426ZM23.5369 31.597C23.8207 31.6768 24.179 31.6768 24.4628 31.597L24.0238 30.0381C24.0367 30.0345 24.0397 30.0348 24.0315 30.0357C24.0243 30.0366 24.0131 30.0375 23.9999 30.0375C23.9866 30.0375 23.9754 30.0366 23.9681 30.0357C23.9599 30.0348 23.963 30.0345 23.9759 30.0381L23.5369 31.597ZM29.3745 29.9125C30.7218 30.3769 31.3973 30.917 31.6187 31.2558L32.9746 30.3698C32.4598 29.5824 31.373 28.8885 29.9024 28.3815L29.3745 29.9125ZM31.6187 31.2558C31.6411 31.2899 31.6543 31.3151 31.6618 31.3314C31.6656 31.3396 31.668 31.3456 31.6694 31.3495C31.6708 31.3534 31.6713 31.3553 31.6713 31.3554C31.6713 31.3554 31.6709 31.354 31.6705 31.351C31.6699 31.3481 31.6694 31.344 31.6691 31.339C31.6682 31.3287 31.6684 31.3174 31.6695 31.3065L33.2812 31.4682C33.3152 31.1289 33.23 30.7605 32.9746 30.3698L31.6187 31.2558ZM31.6695 31.3065C31.6749 31.2529 31.6874 31.3306 31.5178 31.5245L32.7371 32.5905C33.0772 32.2017 33.246 31.8192 33.2812 31.4682L31.6695 31.3065ZM31.5178 31.5245C31.1423 31.9539 30.2735 32.4901 28.8373 32.9066L29.2886 34.4619C30.8485 34.0094 32.0645 33.3595 32.7371 32.5905L31.5178 31.5245ZM28.8373 32.9066C27.4453 33.3104 25.7486 33.5356 23.9852 33.5344L23.984 35.1538C25.8749 35.1551 27.7268 34.9149 29.2886 34.4619L28.8373 32.9066ZM23.9852 33.5344C22.2218 33.5331 20.5273 33.3055 19.1393 32.8999L18.6849 34.4543C20.2431 34.9096 22.0932 35.1524 23.984 35.1538L23.9852 33.5344ZM19.1393 32.8999C17.7067 32.4814 16.8454 31.9447 16.4765 31.5183L15.2515 32.5778C15.9177 33.3477 17.1287 33.9996 18.6849 34.4543L19.1393 32.8999ZM16.4765 31.5183C16.3108 31.3267 16.3253 31.2521 16.3304 31.3078L14.7174 31.4562C14.7497 31.8064 14.9147 32.1886 15.2515 32.5778L16.4765 31.5183ZM16.3304 31.3078C16.3314 31.3192 16.3315 31.3304 16.3306 31.3406C16.3298 31.3506 16.3284 31.3558 16.3285 31.3553C16.3287 31.3547 16.3379 31.3208 16.384 31.2513L15.0337 30.3568C14.7746 30.7477 14.6862 31.117 14.7174 31.4562L16.3304 31.3078ZM16.384 31.2513C16.6115 30.908 17.2955 30.3676 18.6467 29.9051L18.1221 28.3731C16.6476 28.8777 15.5552 29.57 15.0337 30.3568L16.384 31.2513Z" fill="white"/>
</svg>
