<svg width="48" height="49" viewBox="0 0 48 49" fill="none" xmlns="http://www.w3.org/2000/svg">
<rect y="0.75293" width="47.99" height="47.99" rx="23.995" fill="black"/>
<path d="M33.1203 30.4972C33.1203 30.8271 33.047 31.1662 32.8912 31.4961C32.7354 31.826 32.5339 32.1376 32.2682 32.4309C31.8192 32.9257 31.3244 33.2831 30.7655 33.5122C30.2158 33.7413 29.6202 33.8605 28.9788 33.8605C28.0442 33.8605 27.0455 33.6405 25.9918 33.1915C24.9382 32.7424 23.8845 32.1376 22.8399 31.377C21.7863 30.6072 20.7875 29.7549 19.8346 28.811C18.8909 27.858 18.0388 26.8591 17.2783 25.8144C16.527 24.7697 15.9223 23.725 15.4825 22.6894C15.0427 21.6447 14.8228 20.6458 14.8228 19.6927C14.8228 19.0696 14.9327 18.4739 15.1526 17.9241C15.3725 17.365 15.7207 16.8519 16.2063 16.3937C16.7927 15.8163 17.4341 15.5322 18.1121 15.5322C18.3686 15.5322 18.6252 15.5872 18.8543 15.6972C19.0925 15.8071 19.3032 15.9721 19.4681 16.2104L21.5938 19.207C21.7588 19.4361 21.8779 19.6469 21.9603 19.8485C22.0428 20.041 22.0886 20.2334 22.0886 20.4075C22.0886 20.6275 22.0245 20.8474 21.8962 21.0582C21.7771 21.2689 21.603 21.4889 21.3831 21.7088L20.6868 22.4328C20.586 22.5336 20.5402 22.6528 20.5402 22.7994C20.5402 22.8727 20.5493 22.9369 20.5676 23.0102C20.5951 23.0835 20.6226 23.1385 20.6409 23.1934C20.8059 23.4959 21.0899 23.8899 21.4931 24.3664C21.9054 24.843 22.3452 25.3287 22.8216 25.8144C23.3164 26.3001 23.7928 26.7491 24.2785 27.1615C24.7549 27.5647 25.1489 27.8396 25.4604 28.0046C25.5062 28.0229 25.5612 28.0504 25.6253 28.0779C25.6986 28.1054 25.7719 28.1146 25.8544 28.1146C26.0102 28.1146 26.1293 28.0596 26.2301 27.9588L26.9264 27.2715C27.1555 27.0424 27.3754 26.8682 27.5861 26.7583C27.7969 26.63 28.0076 26.5658 28.2367 26.5658C28.4107 26.5658 28.594 26.6025 28.7956 26.685C28.9971 26.7674 29.2079 26.8866 29.4369 27.0424L32.4697 29.1959C32.708 29.3609 32.8729 29.5533 32.9737 29.7824C33.0653 30.0115 33.1203 30.2406 33.1203 30.4972Z" stroke="white" stroke-width="1.37451" stroke-miterlimit="10"/>
<path d="M29.9411 21.9465C29.9411 21.3966 29.5104 20.5536 28.869 19.8664C28.2825 19.2341 27.5036 18.7393 26.7339 18.7393" stroke="white" stroke-width="1.37451" stroke-linecap="round" stroke-linejoin="round"/>
<path d="M33.1483 21.9466C33.1483 18.4004 30.2801 15.5322 26.7339 15.5322" stroke="white" stroke-width="1.37451" stroke-linecap="round" stroke-linejoin="round"/>
</svg>
