<svg width="147" height="148" viewBox="0 0 147 148" fill="none" xmlns="http://www.w3.org/2000/svg">
<g clip-path="url(#clip0_8_5017)">
<g clip-path="url(#clip1_8_5017)">
<g opacity="0.1">
<path d="M3.00977 1.97461C3.00977 2.80304 2.3382 3.47461 1.50977 3.47461C0.681339 3.47461 0.00976562 2.80304 0.00976562 1.97461C0.00976562 1.14618 0.681339 0.474609 1.50977 0.474609C2.3382 0.474609 3.00977 1.14618 3.00977 1.97461Z" fill="white"/>
<path d="M12.0098 1.97461C12.0098 2.80304 11.3382 3.47461 10.5098 3.47461C9.68134 3.47461 9.00977 2.80304 9.00977 1.97461C9.00977 1.14618 9.68134 0.474609 10.5098 0.474609C11.3382 0.474609 12.0098 1.14618 12.0098 1.97461Z" fill="white"/>
<path d="M21.0098 1.97461C21.0098 2.80304 20.3382 3.47461 19.5098 3.47461C18.6814 3.47461 18.0098 2.80304 18.0098 1.97461C18.0098 1.14618 18.6814 0.474609 19.5098 0.474609C20.3382 0.474609 21.0098 1.14618 21.0098 1.97461Z" fill="white"/>
<path d="M30.0098 1.97461C30.0098 2.80304 29.3382 3.47461 28.5098 3.47461C27.6814 3.47461 27.0098 2.80304 27.0098 1.97461C27.0098 1.14618 27.6814 0.474609 28.5098 0.474609C29.3382 0.474609 30.0098 1.14618 30.0098 1.97461Z" fill="white"/>
<path d="M39.0098 1.97461C39.0098 2.80304 38.3382 3.47461 37.5098 3.47461C36.6814 3.47461 36.0098 2.80304 36.0098 1.97461C36.0098 1.14618 36.6814 0.474609 37.5098 0.474609C38.3382 0.474609 39.0098 1.14618 39.0098 1.97461Z" fill="white"/>
<path d="M48.0098 1.97461C48.0098 2.80304 47.3382 3.47461 46.5098 3.47461C45.6814 3.47461 45.0098 2.80304 45.0098 1.97461C45.0098 1.14618 45.6814 0.474609 46.5098 0.474609C47.3382 0.474609 48.0098 1.14618 48.0098 1.97461Z" fill="white"/>
<path d="M57.0098 1.97461C57.0098 2.80304 56.3382 3.47461 55.5098 3.47461C54.6814 3.47461 54.0098 2.80304 54.0098 1.97461C54.0098 1.14618 54.6814 0.474609 55.5098 0.474609C56.3382 0.474609 57.0098 1.14618 57.0098 1.97461Z" fill="white"/>
<path d="M66.0098 1.97461C66.0098 2.80304 65.3382 3.47461 64.5098 3.47461C63.6814 3.47461 63.0098 2.80304 63.0098 1.97461C63.0098 1.14618 63.6814 0.474609 64.5098 0.474609C65.3382 0.474609 66.0098 1.14618 66.0098 1.97461Z" fill="white"/>
<path d="M75.0098 1.97461C75.0098 2.80304 74.3382 3.47461 73.5098 3.47461C72.6814 3.47461 72.0098 2.80304 72.0098 1.97461C72.0098 1.14618 72.6814 0.474609 73.5098 0.474609C74.3382 0.474609 75.0098 1.14618 75.0098 1.97461Z" fill="white"/>
<path d="M84.0098 1.97461C84.0098 2.80304 83.3382 3.47461 82.5098 3.47461C81.6814 3.47461 81.0098 2.80304 81.0098 1.97461C81.0098 1.14618 81.6814 0.474609 82.5098 0.474609C83.3382 0.474609 84.0098 1.14618 84.0098 1.97461Z" fill="white"/>
<path d="M93.0098 1.97461C93.0098 2.80304 92.3382 3.47461 91.5098 3.47461C90.6814 3.47461 90.0098 2.80304 90.0098 1.97461C90.0098 1.14618 90.6814 0.474609 91.5098 0.474609C92.3382 0.474609 93.0098 1.14618 93.0098 1.97461Z" fill="white"/>
<path d="M102.01 1.97461C102.01 2.80304 101.338 3.47461 100.51 3.47461C99.6814 3.47461 99.0098 2.80304 99.0098 1.97461C99.0098 1.14618 99.6814 0.474609 100.51 0.474609C101.338 0.474609 102.01 1.14618 102.01 1.97461Z" fill="white"/>
<path d="M111.01 1.97461C111.01 2.80304 110.338 3.47461 109.51 3.47461C108.682 3.47461 108.01 2.80304 108.01 1.97461C108.01 1.14618 108.682 0.474609 109.51 0.474609C110.338 0.474609 111.01 1.14618 111.01 1.97461Z" fill="white"/>
<path d="M120.01 1.97461C120.01 2.80304 119.338 3.47461 118.51 3.47461C117.682 3.47461 117.01 2.80304 117.01 1.97461C117.01 1.14618 117.682 0.474609 118.51 0.474609C119.338 0.474609 120.01 1.14618 120.01 1.97461Z" fill="white"/>
<path d="M129.01 1.97461C129.01 2.80304 128.338 3.47461 127.51 3.47461C126.682 3.47461 126.01 2.80304 126.01 1.97461C126.01 1.14618 126.682 0.474609 127.51 0.474609C128.338 0.474609 129.01 1.14618 129.01 1.97461Z" fill="white"/>
<path d="M138.01 1.97461C138.01 2.80304 137.338 3.47461 136.51 3.47461C135.682 3.47461 135.01 2.80304 135.01 1.97461C135.01 1.14618 135.682 0.474609 136.51 0.474609C137.338 0.474609 138.01 1.14618 138.01 1.97461Z" fill="white"/>
<path d="M147.01 1.97461C147.01 2.80304 146.338 3.47461 145.51 3.47461C144.682 3.47461 144.01 2.80304 144.01 1.97461C144.01 1.14618 144.682 0.474609 145.51 0.474609C146.338 0.474609 147.01 1.14618 147.01 1.97461Z" fill="white"/>
<path d="M3.00977 10.9746C3.00977 11.803 2.3382 12.4746 1.50977 12.4746C0.681339 12.4746 0.00976562 11.803 0.00976562 10.9746C0.00976562 10.1462 0.681339 9.47461 1.50977 9.47461C2.3382 9.47461 3.00977 10.1462 3.00977 10.9746Z" fill="white"/>
<path d="M12.0098 10.9746C12.0098 11.803 11.3382 12.4746 10.5098 12.4746C9.68134 12.4746 9.00977 11.803 9.00977 10.9746C9.00977 10.1462 9.68134 9.47461 10.5098 9.47461C11.3382 9.47461 12.0098 10.1462 12.0098 10.9746Z" fill="white"/>
<path d="M21.0098 10.9746C21.0098 11.803 20.3382 12.4746 19.5098 12.4746C18.6814 12.4746 18.0098 11.803 18.0098 10.9746C18.0098 10.1462 18.6814 9.47461 19.5098 9.47461C20.3382 9.47461 21.0098 10.1462 21.0098 10.9746Z" fill="white"/>
<path d="M30.0098 10.9746C30.0098 11.803 29.3382 12.4746 28.5098 12.4746C27.6814 12.4746 27.0098 11.803 27.0098 10.9746C27.0098 10.1462 27.6814 9.47461 28.5098 9.47461C29.3382 9.47461 30.0098 10.1462 30.0098 10.9746Z" fill="white"/>
<path d="M39.0098 10.9746C39.0098 11.803 38.3382 12.4746 37.5098 12.4746C36.6814 12.4746 36.0098 11.803 36.0098 10.9746C36.0098 10.1462 36.6814 9.47461 37.5098 9.47461C38.3382 9.47461 39.0098 10.1462 39.0098 10.9746Z" fill="white"/>
<path d="M48.0098 10.9746C48.0098 11.803 47.3382 12.4746 46.5098 12.4746C45.6814 12.4746 45.0098 11.803 45.0098 10.9746C45.0098 10.1462 45.6814 9.47461 46.5098 9.47461C47.3382 9.47461 48.0098 10.1462 48.0098 10.9746Z" fill="white"/>
<path d="M57.0098 10.9746C57.0098 11.803 56.3382 12.4746 55.5098 12.4746C54.6814 12.4746 54.0098 11.803 54.0098 10.9746C54.0098 10.1462 54.6814 9.47461 55.5098 9.47461C56.3382 9.47461 57.0098 10.1462 57.0098 10.9746Z" fill="white"/>
<path d="M66.0098 10.9746C66.0098 11.803 65.3382 12.4746 64.5098 12.4746C63.6814 12.4746 63.0098 11.803 63.0098 10.9746C63.0098 10.1462 63.6814 9.47461 64.5098 9.47461C65.3382 9.47461 66.0098 10.1462 66.0098 10.9746Z" fill="white"/>
<path d="M75.0098 10.9746C75.0098 11.803 74.3382 12.4746 73.5098 12.4746C72.6814 12.4746 72.0098 11.803 72.0098 10.9746C72.0098 10.1462 72.6814 9.47461 73.5098 9.47461C74.3382 9.47461 75.0098 10.1462 75.0098 10.9746Z" fill="white"/>
<path d="M84.0098 10.9746C84.0098 11.803 83.3382 12.4746 82.5098 12.4746C81.6814 12.4746 81.0098 11.803 81.0098 10.9746C81.0098 10.1462 81.6814 9.47461 82.5098 9.47461C83.3382 9.47461 84.0098 10.1462 84.0098 10.9746Z" fill="white"/>
<path d="M93.0098 10.9746C93.0098 11.803 92.3382 12.4746 91.5098 12.4746C90.6814 12.4746 90.0098 11.803 90.0098 10.9746C90.0098 10.1462 90.6814 9.47461 91.5098 9.47461C92.3382 9.47461 93.0098 10.1462 93.0098 10.9746Z" fill="white"/>
<path d="M102.01 10.9746C102.01 11.803 101.338 12.4746 100.51 12.4746C99.6814 12.4746 99.0098 11.803 99.0098 10.9746C99.0098 10.1462 99.6814 9.47461 100.51 9.47461C101.338 9.47461 102.01 10.1462 102.01 10.9746Z" fill="white"/>
<path d="M111.01 10.9746C111.01 11.803 110.338 12.4746 109.51 12.4746C108.682 12.4746 108.01 11.803 108.01 10.9746C108.01 10.1462 108.682 9.47461 109.51 9.47461C110.338 9.47461 111.01 10.1462 111.01 10.9746Z" fill="white"/>
<path d="M120.01 10.9746C120.01 11.803 119.338 12.4746 118.51 12.4746C117.682 12.4746 117.01 11.803 117.01 10.9746C117.01 10.1462 117.682 9.47461 118.51 9.47461C119.338 9.47461 120.01 10.1462 120.01 10.9746Z" fill="white"/>
<path d="M129.01 10.9746C129.01 11.803 128.338 12.4746 127.51 12.4746C126.682 12.4746 126.01 11.803 126.01 10.9746C126.01 10.1462 126.682 9.47461 127.51 9.47461C128.338 9.47461 129.01 10.1462 129.01 10.9746Z" fill="white"/>
<path d="M138.01 10.9746C138.01 11.803 137.338 12.4746 136.51 12.4746C135.682 12.4746 135.01 11.803 135.01 10.9746C135.01 10.1462 135.682 9.47461 136.51 9.47461C137.338 9.47461 138.01 10.1462 138.01 10.9746Z" fill="white"/>
<path d="M147.01 10.9746C147.01 11.803 146.338 12.4746 145.51 12.4746C144.682 12.4746 144.01 11.803 144.01 10.9746C144.01 10.1462 144.682 9.47461 145.51 9.47461C146.338 9.47461 147.01 10.1462 147.01 10.9746Z" fill="white"/>
<path d="M3.00977 19.9746C3.00977 20.803 2.3382 21.4746 1.50977 21.4746C0.681339 21.4746 0.00976562 20.803 0.00976562 19.9746C0.00976562 19.1462 0.681339 18.4746 1.50977 18.4746C2.3382 18.4746 3.00977 19.1462 3.00977 19.9746Z" fill="white"/>
<path d="M12.0098 19.9746C12.0098 20.803 11.3382 21.4746 10.5098 21.4746C9.68134 21.4746 9.00977 20.803 9.00977 19.9746C9.00977 19.1462 9.68134 18.4746 10.5098 18.4746C11.3382 18.4746 12.0098 19.1462 12.0098 19.9746Z" fill="white"/>
<path d="M21.0098 19.9746C21.0098 20.803 20.3382 21.4746 19.5098 21.4746C18.6814 21.4746 18.0098 20.803 18.0098 19.9746C18.0098 19.1462 18.6814 18.4746 19.5098 18.4746C20.3382 18.4746 21.0098 19.1462 21.0098 19.9746Z" fill="white"/>
<path d="M30.0098 19.9746C30.0098 20.803 29.3382 21.4746 28.5098 21.4746C27.6814 21.4746 27.0098 20.803 27.0098 19.9746C27.0098 19.1462 27.6814 18.4746 28.5098 18.4746C29.3382 18.4746 30.0098 19.1462 30.0098 19.9746Z" fill="white"/>
<path d="M39.0098 19.9746C39.0098 20.803 38.3382 21.4746 37.5098 21.4746C36.6814 21.4746 36.0098 20.803 36.0098 19.9746C36.0098 19.1462 36.6814 18.4746 37.5098 18.4746C38.3382 18.4746 39.0098 19.1462 39.0098 19.9746Z" fill="white"/>
<path d="M48.0098 19.9746C48.0098 20.803 47.3382 21.4746 46.5098 21.4746C45.6814 21.4746 45.0098 20.803 45.0098 19.9746C45.0098 19.1462 45.6814 18.4746 46.5098 18.4746C47.3382 18.4746 48.0098 19.1462 48.0098 19.9746Z" fill="white"/>
<path d="M57.0098 19.9746C57.0098 20.803 56.3382 21.4746 55.5098 21.4746C54.6814 21.4746 54.0098 20.803 54.0098 19.9746C54.0098 19.1462 54.6814 18.4746 55.5098 18.4746C56.3382 18.4746 57.0098 19.1462 57.0098 19.9746Z" fill="white"/>
<path d="M66.0098 19.9746C66.0098 20.803 65.3382 21.4746 64.5098 21.4746C63.6814 21.4746 63.0098 20.803 63.0098 19.9746C63.0098 19.1462 63.6814 18.4746 64.5098 18.4746C65.3382 18.4746 66.0098 19.1462 66.0098 19.9746Z" fill="white"/>
<path d="M75.0098 19.9746C75.0098 20.803 74.3382 21.4746 73.5098 21.4746C72.6814 21.4746 72.0098 20.803 72.0098 19.9746C72.0098 19.1462 72.6814 18.4746 73.5098 18.4746C74.3382 18.4746 75.0098 19.1462 75.0098 19.9746Z" fill="white"/>
<path d="M84.0098 19.9746C84.0098 20.803 83.3382 21.4746 82.5098 21.4746C81.6814 21.4746 81.0098 20.803 81.0098 19.9746C81.0098 19.1462 81.6814 18.4746 82.5098 18.4746C83.3382 18.4746 84.0098 19.1462 84.0098 19.9746Z" fill="white"/>
<path d="M93.0098 19.9746C93.0098 20.803 92.3382 21.4746 91.5098 21.4746C90.6814 21.4746 90.0098 20.803 90.0098 19.9746C90.0098 19.1462 90.6814 18.4746 91.5098 18.4746C92.3382 18.4746 93.0098 19.1462 93.0098 19.9746Z" fill="white"/>
<path d="M102.01 19.9746C102.01 20.803 101.338 21.4746 100.51 21.4746C99.6814 21.4746 99.0098 20.803 99.0098 19.9746C99.0098 19.1462 99.6814 18.4746 100.51 18.4746C101.338 18.4746 102.01 19.1462 102.01 19.9746Z" fill="white"/>
<path d="M111.01 19.9746C111.01 20.803 110.338 21.4746 109.51 21.4746C108.682 21.4746 108.01 20.803 108.01 19.9746C108.01 19.1462 108.682 18.4746 109.51 18.4746C110.338 18.4746 111.01 19.1462 111.01 19.9746Z" fill="white"/>
<path d="M120.01 19.9746C120.01 20.803 119.338 21.4746 118.51 21.4746C117.682 21.4746 117.01 20.803 117.01 19.9746C117.01 19.1462 117.682 18.4746 118.51 18.4746C119.338 18.4746 120.01 19.1462 120.01 19.9746Z" fill="white"/>
<path d="M129.01 19.9746C129.01 20.803 128.338 21.4746 127.51 21.4746C126.682 21.4746 126.01 20.803 126.01 19.9746C126.01 19.1462 126.682 18.4746 127.51 18.4746C128.338 18.4746 129.01 19.1462 129.01 19.9746Z" fill="white"/>
<path d="M138.01 19.9746C138.01 20.803 137.338 21.4746 136.51 21.4746C135.682 21.4746 135.01 20.803 135.01 19.9746C135.01 19.1462 135.682 18.4746 136.51 18.4746C137.338 18.4746 138.01 19.1462 138.01 19.9746Z" fill="white"/>
<path d="M147.01 19.9746C147.01 20.803 146.338 21.4746 145.51 21.4746C144.682 21.4746 144.01 20.803 144.01 19.9746C144.01 19.1462 144.682 18.4746 145.51 18.4746C146.338 18.4746 147.01 19.1462 147.01 19.9746Z" fill="white"/>
<path d="M3.00977 28.9746C3.00977 29.803 2.3382 30.4746 1.50977 30.4746C0.681339 30.4746 0.00976562 29.803 0.00976562 28.9746C0.00976562 28.1462 0.681339 27.4746 1.50977 27.4746C2.3382 27.4746 3.00977 28.1462 3.00977 28.9746Z" fill="white"/>
<path d="M12.0098 28.9746C12.0098 29.803 11.3382 30.4746 10.5098 30.4746C9.68134 30.4746 9.00977 29.803 9.00977 28.9746C9.00977 28.1462 9.68134 27.4746 10.5098 27.4746C11.3382 27.4746 12.0098 28.1462 12.0098 28.9746Z" fill="white"/>
<path d="M21.0098 28.9746C21.0098 29.803 20.3382 30.4746 19.5098 30.4746C18.6814 30.4746 18.0098 29.803 18.0098 28.9746C18.0098 28.1462 18.6814 27.4746 19.5098 27.4746C20.3382 27.4746 21.0098 28.1462 21.0098 28.9746Z" fill="white"/>
<path d="M30.0098 28.9746C30.0098 29.803 29.3382 30.4746 28.5098 30.4746C27.6814 30.4746 27.0098 29.803 27.0098 28.9746C27.0098 28.1462 27.6814 27.4746 28.5098 27.4746C29.3382 27.4746 30.0098 28.1462 30.0098 28.9746Z" fill="white"/>
<path d="M39.0098 28.9746C39.0098 29.803 38.3382 30.4746 37.5098 30.4746C36.6814 30.4746 36.0098 29.803 36.0098 28.9746C36.0098 28.1462 36.6814 27.4746 37.5098 27.4746C38.3382 27.4746 39.0098 28.1462 39.0098 28.9746Z" fill="white"/>
<path d="M48.0098 28.9746C48.0098 29.803 47.3382 30.4746 46.5098 30.4746C45.6814 30.4746 45.0098 29.803 45.0098 28.9746C45.0098 28.1462 45.6814 27.4746 46.5098 27.4746C47.3382 27.4746 48.0098 28.1462 48.0098 28.9746Z" fill="white"/>
<path d="M57.0098 28.9746C57.0098 29.803 56.3382 30.4746 55.5098 30.4746C54.6814 30.4746 54.0098 29.803 54.0098 28.9746C54.0098 28.1462 54.6814 27.4746 55.5098 27.4746C56.3382 27.4746 57.0098 28.1462 57.0098 28.9746Z" fill="white"/>
<path d="M66.0098 28.9746C66.0098 29.803 65.3382 30.4746 64.5098 30.4746C63.6814 30.4746 63.0098 29.803 63.0098 28.9746C63.0098 28.1462 63.6814 27.4746 64.5098 27.4746C65.3382 27.4746 66.0098 28.1462 66.0098 28.9746Z" fill="white"/>
<path d="M75.0098 28.9746C75.0098 29.803 74.3382 30.4746 73.5098 30.4746C72.6814 30.4746 72.0098 29.803 72.0098 28.9746C72.0098 28.1462 72.6814 27.4746 73.5098 27.4746C74.3382 27.4746 75.0098 28.1462 75.0098 28.9746Z" fill="white"/>
<path d="M84.0098 28.9746C84.0098 29.803 83.3382 30.4746 82.5098 30.4746C81.6814 30.4746 81.0098 29.803 81.0098 28.9746C81.0098 28.1462 81.6814 27.4746 82.5098 27.4746C83.3382 27.4746 84.0098 28.1462 84.0098 28.9746Z" fill="white"/>
<path d="M93.0098 28.9746C93.0098 29.803 92.3382 30.4746 91.5098 30.4746C90.6814 30.4746 90.0098 29.803 90.0098 28.9746C90.0098 28.1462 90.6814 27.4746 91.5098 27.4746C92.3382 27.4746 93.0098 28.1462 93.0098 28.9746Z" fill="white"/>
<path d="M102.01 28.9746C102.01 29.803 101.338 30.4746 100.51 30.4746C99.6814 30.4746 99.0098 29.803 99.0098 28.9746C99.0098 28.1462 99.6814 27.4746 100.51 27.4746C101.338 27.4746 102.01 28.1462 102.01 28.9746Z" fill="white"/>
<path d="M111.01 28.9746C111.01 29.803 110.338 30.4746 109.51 30.4746C108.682 30.4746 108.01 29.803 108.01 28.9746C108.01 28.1462 108.682 27.4746 109.51 27.4746C110.338 27.4746 111.01 28.1462 111.01 28.9746Z" fill="white"/>
<path d="M120.01 28.9746C120.01 29.803 119.338 30.4746 118.51 30.4746C117.682 30.4746 117.01 29.803 117.01 28.9746C117.01 28.1462 117.682 27.4746 118.51 27.4746C119.338 27.4746 120.01 28.1462 120.01 28.9746Z" fill="white"/>
<path d="M129.01 28.9746C129.01 29.803 128.338 30.4746 127.51 30.4746C126.682 30.4746 126.01 29.803 126.01 28.9746C126.01 28.1462 126.682 27.4746 127.51 27.4746C128.338 27.4746 129.01 28.1462 129.01 28.9746Z" fill="white"/>
<path d="M138.01 28.9746C138.01 29.803 137.338 30.4746 136.51 30.4746C135.682 30.4746 135.01 29.803 135.01 28.9746C135.01 28.1462 135.682 27.4746 136.51 27.4746C137.338 27.4746 138.01 28.1462 138.01 28.9746Z" fill="white"/>
<path d="M147.01 28.9746C147.01 29.803 146.338 30.4746 145.51 30.4746C144.682 30.4746 144.01 29.803 144.01 28.9746C144.01 28.1462 144.682 27.4746 145.51 27.4746C146.338 27.4746 147.01 28.1462 147.01 28.9746Z" fill="white"/>
<path d="M3.00977 37.9746C3.00977 38.803 2.3382 39.4746 1.50977 39.4746C0.681339 39.4746 0.00976562 38.803 0.00976562 37.9746C0.00976562 37.1462 0.681339 36.4746 1.50977 36.4746C2.3382 36.4746 3.00977 37.1462 3.00977 37.9746Z" fill="white"/>
<path d="M12.0098 37.9746C12.0098 38.803 11.3382 39.4746 10.5098 39.4746C9.68134 39.4746 9.00977 38.803 9.00977 37.9746C9.00977 37.1462 9.68134 36.4746 10.5098 36.4746C11.3382 36.4746 12.0098 37.1462 12.0098 37.9746Z" fill="white"/>
<path d="M21.0098 37.9746C21.0098 38.803 20.3382 39.4746 19.5098 39.4746C18.6814 39.4746 18.0098 38.803 18.0098 37.9746C18.0098 37.1462 18.6814 36.4746 19.5098 36.4746C20.3382 36.4746 21.0098 37.1462 21.0098 37.9746Z" fill="white"/>
<path d="M30.0098 37.9746C30.0098 38.803 29.3382 39.4746 28.5098 39.4746C27.6814 39.4746 27.0098 38.803 27.0098 37.9746C27.0098 37.1462 27.6814 36.4746 28.5098 36.4746C29.3382 36.4746 30.0098 37.1462 30.0098 37.9746Z" fill="white"/>
<path d="M39.0098 37.9746C39.0098 38.803 38.3382 39.4746 37.5098 39.4746C36.6814 39.4746 36.0098 38.803 36.0098 37.9746C36.0098 37.1462 36.6814 36.4746 37.5098 36.4746C38.3382 36.4746 39.0098 37.1462 39.0098 37.9746Z" fill="white"/>
<path d="M48.0098 37.9746C48.0098 38.803 47.3382 39.4746 46.5098 39.4746C45.6814 39.4746 45.0098 38.803 45.0098 37.9746C45.0098 37.1462 45.6814 36.4746 46.5098 36.4746C47.3382 36.4746 48.0098 37.1462 48.0098 37.9746Z" fill="white"/>
<path d="M57.0098 37.9746C57.0098 38.803 56.3382 39.4746 55.5098 39.4746C54.6814 39.4746 54.0098 38.803 54.0098 37.9746C54.0098 37.1462 54.6814 36.4746 55.5098 36.4746C56.3382 36.4746 57.0098 37.1462 57.0098 37.9746Z" fill="white"/>
<path d="M66.0098 37.9746C66.0098 38.803 65.3382 39.4746 64.5098 39.4746C63.6814 39.4746 63.0098 38.803 63.0098 37.9746C63.0098 37.1462 63.6814 36.4746 64.5098 36.4746C65.3382 36.4746 66.0098 37.1462 66.0098 37.9746Z" fill="white"/>
<path d="M75.0098 37.9746C75.0098 38.803 74.3382 39.4746 73.5098 39.4746C72.6814 39.4746 72.0098 38.803 72.0098 37.9746C72.0098 37.1462 72.6814 36.4746 73.5098 36.4746C74.3382 36.4746 75.0098 37.1462 75.0098 37.9746Z" fill="white"/>
<path d="M84.0098 37.9746C84.0098 38.803 83.3382 39.4746 82.5098 39.4746C81.6814 39.4746 81.0098 38.803 81.0098 37.9746C81.0098 37.1462 81.6814 36.4746 82.5098 36.4746C83.3382 36.4746 84.0098 37.1462 84.0098 37.9746Z" fill="white"/>
<path d="M93.0098 37.9746C93.0098 38.803 92.3382 39.4746 91.5098 39.4746C90.6814 39.4746 90.0098 38.803 90.0098 37.9746C90.0098 37.1462 90.6814 36.4746 91.5098 36.4746C92.3382 36.4746 93.0098 37.1462 93.0098 37.9746Z" fill="white"/>
<path d="M102.01 37.9746C102.01 38.803 101.338 39.4746 100.51 39.4746C99.6814 39.4746 99.0098 38.803 99.0098 37.9746C99.0098 37.1462 99.6814 36.4746 100.51 36.4746C101.338 36.4746 102.01 37.1462 102.01 37.9746Z" fill="white"/>
<path d="M111.01 37.9746C111.01 38.803 110.338 39.4746 109.51 39.4746C108.682 39.4746 108.01 38.803 108.01 37.9746C108.01 37.1462 108.682 36.4746 109.51 36.4746C110.338 36.4746 111.01 37.1462 111.01 37.9746Z" fill="white"/>
<path d="M120.01 37.9746C120.01 38.803 119.338 39.4746 118.51 39.4746C117.682 39.4746 117.01 38.803 117.01 37.9746C117.01 37.1462 117.682 36.4746 118.51 36.4746C119.338 36.4746 120.01 37.1462 120.01 37.9746Z" fill="white"/>
<path d="M129.01 37.9746C129.01 38.803 128.338 39.4746 127.51 39.4746C126.682 39.4746 126.01 38.803 126.01 37.9746C126.01 37.1462 126.682 36.4746 127.51 36.4746C128.338 36.4746 129.01 37.1462 129.01 37.9746Z" fill="white"/>
<path d="M138.01 37.9746C138.01 38.803 137.338 39.4746 136.51 39.4746C135.682 39.4746 135.01 38.803 135.01 37.9746C135.01 37.1462 135.682 36.4746 136.51 36.4746C137.338 36.4746 138.01 37.1462 138.01 37.9746Z" fill="white"/>
<path d="M147.01 37.9746C147.01 38.803 146.338 39.4746 145.51 39.4746C144.682 39.4746 144.01 38.803 144.01 37.9746C144.01 37.1462 144.682 36.4746 145.51 36.4746C146.338 36.4746 147.01 37.1462 147.01 37.9746Z" fill="white"/>
<path d="M3.00977 46.9746C3.00977 47.803 2.3382 48.4746 1.50977 48.4746C0.681339 48.4746 0.00976562 47.803 0.00976562 46.9746C0.00976562 46.1462 0.681339 45.4746 1.50977 45.4746C2.3382 45.4746 3.00977 46.1462 3.00977 46.9746Z" fill="white"/>
<path d="M12.0098 46.9746C12.0098 47.803 11.3382 48.4746 10.5098 48.4746C9.68134 48.4746 9.00977 47.803 9.00977 46.9746C9.00977 46.1462 9.68134 45.4746 10.5098 45.4746C11.3382 45.4746 12.0098 46.1462 12.0098 46.9746Z" fill="white"/>
<path d="M21.0098 46.9746C21.0098 47.803 20.3382 48.4746 19.5098 48.4746C18.6814 48.4746 18.0098 47.803 18.0098 46.9746C18.0098 46.1462 18.6814 45.4746 19.5098 45.4746C20.3382 45.4746 21.0098 46.1462 21.0098 46.9746Z" fill="white"/>
<path d="M30.0098 46.9746C30.0098 47.803 29.3382 48.4746 28.5098 48.4746C27.6814 48.4746 27.0098 47.803 27.0098 46.9746C27.0098 46.1462 27.6814 45.4746 28.5098 45.4746C29.3382 45.4746 30.0098 46.1462 30.0098 46.9746Z" fill="white"/>
<path d="M39.0098 46.9746C39.0098 47.803 38.3382 48.4746 37.5098 48.4746C36.6814 48.4746 36.0098 47.803 36.0098 46.9746C36.0098 46.1462 36.6814 45.4746 37.5098 45.4746C38.3382 45.4746 39.0098 46.1462 39.0098 46.9746Z" fill="white"/>
<path d="M48.0098 46.9746C48.0098 47.803 47.3382 48.4746 46.5098 48.4746C45.6814 48.4746 45.0098 47.803 45.0098 46.9746C45.0098 46.1462 45.6814 45.4746 46.5098 45.4746C47.3382 45.4746 48.0098 46.1462 48.0098 46.9746Z" fill="white"/>
<path d="M57.0098 46.9746C57.0098 47.803 56.3382 48.4746 55.5098 48.4746C54.6814 48.4746 54.0098 47.803 54.0098 46.9746C54.0098 46.1462 54.6814 45.4746 55.5098 45.4746C56.3382 45.4746 57.0098 46.1462 57.0098 46.9746Z" fill="white"/>
<path d="M66.0098 46.9746C66.0098 47.803 65.3382 48.4746 64.5098 48.4746C63.6814 48.4746 63.0098 47.803 63.0098 46.9746C63.0098 46.1462 63.6814 45.4746 64.5098 45.4746C65.3382 45.4746 66.0098 46.1462 66.0098 46.9746Z" fill="white"/>
<path d="M75.0098 46.9746C75.0098 47.803 74.3382 48.4746 73.5098 48.4746C72.6814 48.4746 72.0098 47.803 72.0098 46.9746C72.0098 46.1462 72.6814 45.4746 73.5098 45.4746C74.3382 45.4746 75.0098 46.1462 75.0098 46.9746Z" fill="white"/>
<path d="M84.0098 46.9746C84.0098 47.803 83.3382 48.4746 82.5098 48.4746C81.6814 48.4746 81.0098 47.803 81.0098 46.9746C81.0098 46.1462 81.6814 45.4746 82.5098 45.4746C83.3382 45.4746 84.0098 46.1462 84.0098 46.9746Z" fill="white"/>
<path d="M93.0098 46.9746C93.0098 47.803 92.3382 48.4746 91.5098 48.4746C90.6814 48.4746 90.0098 47.803 90.0098 46.9746C90.0098 46.1462 90.6814 45.4746 91.5098 45.4746C92.3382 45.4746 93.0098 46.1462 93.0098 46.9746Z" fill="white"/>
<path d="M102.01 46.9746C102.01 47.803 101.338 48.4746 100.51 48.4746C99.6814 48.4746 99.0098 47.803 99.0098 46.9746C99.0098 46.1462 99.6814 45.4746 100.51 45.4746C101.338 45.4746 102.01 46.1462 102.01 46.9746Z" fill="white"/>
<path d="M111.01 46.9746C111.01 47.803 110.338 48.4746 109.51 48.4746C108.682 48.4746 108.01 47.803 108.01 46.9746C108.01 46.1462 108.682 45.4746 109.51 45.4746C110.338 45.4746 111.01 46.1462 111.01 46.9746Z" fill="white"/>
<path d="M120.01 46.9746C120.01 47.803 119.338 48.4746 118.51 48.4746C117.682 48.4746 117.01 47.803 117.01 46.9746C117.01 46.1462 117.682 45.4746 118.51 45.4746C119.338 45.4746 120.01 46.1462 120.01 46.9746Z" fill="white"/>
<path d="M129.01 46.9746C129.01 47.803 128.338 48.4746 127.51 48.4746C126.682 48.4746 126.01 47.803 126.01 46.9746C126.01 46.1462 126.682 45.4746 127.51 45.4746C128.338 45.4746 129.01 46.1462 129.01 46.9746Z" fill="white"/>
<path d="M138.01 46.9746C138.01 47.803 137.338 48.4746 136.51 48.4746C135.682 48.4746 135.01 47.803 135.01 46.9746C135.01 46.1462 135.682 45.4746 136.51 45.4746C137.338 45.4746 138.01 46.1462 138.01 46.9746Z" fill="white"/>
<path d="M147.01 46.9746C147.01 47.803 146.338 48.4746 145.51 48.4746C144.682 48.4746 144.01 47.803 144.01 46.9746C144.01 46.1462 144.682 45.4746 145.51 45.4746C146.338 45.4746 147.01 46.1462 147.01 46.9746Z" fill="white"/>
<path d="M3.00977 55.9746C3.00977 56.803 2.3382 57.4746 1.50977 57.4746C0.681339 57.4746 0.00976562 56.803 0.00976562 55.9746C0.00976562 55.1462 0.681339 54.4746 1.50977 54.4746C2.3382 54.4746 3.00977 55.1462 3.00977 55.9746Z" fill="white"/>
<path d="M12.0098 55.9746C12.0098 56.803 11.3382 57.4746 10.5098 57.4746C9.68134 57.4746 9.00977 56.803 9.00977 55.9746C9.00977 55.1462 9.68134 54.4746 10.5098 54.4746C11.3382 54.4746 12.0098 55.1462 12.0098 55.9746Z" fill="white"/>
<path d="M21.0098 55.9746C21.0098 56.803 20.3382 57.4746 19.5098 57.4746C18.6814 57.4746 18.0098 56.803 18.0098 55.9746C18.0098 55.1462 18.6814 54.4746 19.5098 54.4746C20.3382 54.4746 21.0098 55.1462 21.0098 55.9746Z" fill="white"/>
<path d="M30.0098 55.9746C30.0098 56.803 29.3382 57.4746 28.5098 57.4746C27.6814 57.4746 27.0098 56.803 27.0098 55.9746C27.0098 55.1462 27.6814 54.4746 28.5098 54.4746C29.3382 54.4746 30.0098 55.1462 30.0098 55.9746Z" fill="white"/>
<path d="M39.0098 55.9746C39.0098 56.803 38.3382 57.4746 37.5098 57.4746C36.6814 57.4746 36.0098 56.803 36.0098 55.9746C36.0098 55.1462 36.6814 54.4746 37.5098 54.4746C38.3382 54.4746 39.0098 55.1462 39.0098 55.9746Z" fill="white"/>
<path d="M48.0098 55.9746C48.0098 56.803 47.3382 57.4746 46.5098 57.4746C45.6814 57.4746 45.0098 56.803 45.0098 55.9746C45.0098 55.1462 45.6814 54.4746 46.5098 54.4746C47.3382 54.4746 48.0098 55.1462 48.0098 55.9746Z" fill="white"/>
<path d="M57.0098 55.9746C57.0098 56.803 56.3382 57.4746 55.5098 57.4746C54.6814 57.4746 54.0098 56.803 54.0098 55.9746C54.0098 55.1462 54.6814 54.4746 55.5098 54.4746C56.3382 54.4746 57.0098 55.1462 57.0098 55.9746Z" fill="white"/>
<path d="M66.0098 55.9746C66.0098 56.803 65.3382 57.4746 64.5098 57.4746C63.6814 57.4746 63.0098 56.803 63.0098 55.9746C63.0098 55.1462 63.6814 54.4746 64.5098 54.4746C65.3382 54.4746 66.0098 55.1462 66.0098 55.9746Z" fill="white"/>
<path d="M75.0098 55.9746C75.0098 56.803 74.3382 57.4746 73.5098 57.4746C72.6814 57.4746 72.0098 56.803 72.0098 55.9746C72.0098 55.1462 72.6814 54.4746 73.5098 54.4746C74.3382 54.4746 75.0098 55.1462 75.0098 55.9746Z" fill="white"/>
<path d="M84.0098 55.9746C84.0098 56.803 83.3382 57.4746 82.5098 57.4746C81.6814 57.4746 81.0098 56.803 81.0098 55.9746C81.0098 55.1462 81.6814 54.4746 82.5098 54.4746C83.3382 54.4746 84.0098 55.1462 84.0098 55.9746Z" fill="white"/>
<path d="M93.0098 55.9746C93.0098 56.803 92.3382 57.4746 91.5098 57.4746C90.6814 57.4746 90.0098 56.803 90.0098 55.9746C90.0098 55.1462 90.6814 54.4746 91.5098 54.4746C92.3382 54.4746 93.0098 55.1462 93.0098 55.9746Z" fill="white"/>
<path d="M102.01 55.9746C102.01 56.803 101.338 57.4746 100.51 57.4746C99.6814 57.4746 99.0098 56.803 99.0098 55.9746C99.0098 55.1462 99.6814 54.4746 100.51 54.4746C101.338 54.4746 102.01 55.1462 102.01 55.9746Z" fill="white"/>
<path d="M111.01 55.9746C111.01 56.803 110.338 57.4746 109.51 57.4746C108.682 57.4746 108.01 56.803 108.01 55.9746C108.01 55.1462 108.682 54.4746 109.51 54.4746C110.338 54.4746 111.01 55.1462 111.01 55.9746Z" fill="white"/>
<path d="M120.01 55.9746C120.01 56.803 119.338 57.4746 118.51 57.4746C117.682 57.4746 117.01 56.803 117.01 55.9746C117.01 55.1462 117.682 54.4746 118.51 54.4746C119.338 54.4746 120.01 55.1462 120.01 55.9746Z" fill="white"/>
<path d="M129.01 55.9746C129.01 56.803 128.338 57.4746 127.51 57.4746C126.682 57.4746 126.01 56.803 126.01 55.9746C126.01 55.1462 126.682 54.4746 127.51 54.4746C128.338 54.4746 129.01 55.1462 129.01 55.9746Z" fill="white"/>
<path d="M138.01 55.9746C138.01 56.803 137.338 57.4746 136.51 57.4746C135.682 57.4746 135.01 56.803 135.01 55.9746C135.01 55.1462 135.682 54.4746 136.51 54.4746C137.338 54.4746 138.01 55.1462 138.01 55.9746Z" fill="white"/>
<path d="M147.01 55.9746C147.01 56.803 146.338 57.4746 145.51 57.4746C144.682 57.4746 144.01 56.803 144.01 55.9746C144.01 55.1462 144.682 54.4746 145.51 54.4746C146.338 54.4746 147.01 55.1462 147.01 55.9746Z" fill="white"/>
<path d="M3.00977 64.9746C3.00977 65.803 2.3382 66.4746 1.50977 66.4746C0.681339 66.4746 0.00976562 65.803 0.00976562 64.9746C0.00976562 64.1462 0.681339 63.4746 1.50977 63.4746C2.3382 63.4746 3.00977 64.1462 3.00977 64.9746Z" fill="white"/>
<path d="M12.0098 64.9746C12.0098 65.803 11.3382 66.4746 10.5098 66.4746C9.68134 66.4746 9.00977 65.803 9.00977 64.9746C9.00977 64.1462 9.68134 63.4746 10.5098 63.4746C11.3382 63.4746 12.0098 64.1462 12.0098 64.9746Z" fill="white"/>
<path d="M21.0098 64.9746C21.0098 65.803 20.3382 66.4746 19.5098 66.4746C18.6814 66.4746 18.0098 65.803 18.0098 64.9746C18.0098 64.1462 18.6814 63.4746 19.5098 63.4746C20.3382 63.4746 21.0098 64.1462 21.0098 64.9746Z" fill="white"/>
<path d="M30.0098 64.9746C30.0098 65.803 29.3382 66.4746 28.5098 66.4746C27.6814 66.4746 27.0098 65.803 27.0098 64.9746C27.0098 64.1462 27.6814 63.4746 28.5098 63.4746C29.3382 63.4746 30.0098 64.1462 30.0098 64.9746Z" fill="white"/>
<path d="M39.0098 64.9746C39.0098 65.803 38.3382 66.4746 37.5098 66.4746C36.6814 66.4746 36.0098 65.803 36.0098 64.9746C36.0098 64.1462 36.6814 63.4746 37.5098 63.4746C38.3382 63.4746 39.0098 64.1462 39.0098 64.9746Z" fill="white"/>
<path d="M48.0098 64.9746C48.0098 65.803 47.3382 66.4746 46.5098 66.4746C45.6814 66.4746 45.0098 65.803 45.0098 64.9746C45.0098 64.1462 45.6814 63.4746 46.5098 63.4746C47.3382 63.4746 48.0098 64.1462 48.0098 64.9746Z" fill="white"/>
<path d="M57.0098 64.9746C57.0098 65.803 56.3382 66.4746 55.5098 66.4746C54.6814 66.4746 54.0098 65.803 54.0098 64.9746C54.0098 64.1462 54.6814 63.4746 55.5098 63.4746C56.3382 63.4746 57.0098 64.1462 57.0098 64.9746Z" fill="white"/>
<path d="M66.0098 64.9746C66.0098 65.803 65.3382 66.4746 64.5098 66.4746C63.6814 66.4746 63.0098 65.803 63.0098 64.9746C63.0098 64.1462 63.6814 63.4746 64.5098 63.4746C65.3382 63.4746 66.0098 64.1462 66.0098 64.9746Z" fill="white"/>
<path d="M75.0098 64.9746C75.0098 65.803 74.3382 66.4746 73.5098 66.4746C72.6814 66.4746 72.0098 65.803 72.0098 64.9746C72.0098 64.1462 72.6814 63.4746 73.5098 63.4746C74.3382 63.4746 75.0098 64.1462 75.0098 64.9746Z" fill="white"/>
<path d="M84.0098 64.9746C84.0098 65.803 83.3382 66.4746 82.5098 66.4746C81.6814 66.4746 81.0098 65.803 81.0098 64.9746C81.0098 64.1462 81.6814 63.4746 82.5098 63.4746C83.3382 63.4746 84.0098 64.1462 84.0098 64.9746Z" fill="white"/>
<path d="M93.0098 64.9746C93.0098 65.803 92.3382 66.4746 91.5098 66.4746C90.6814 66.4746 90.0098 65.803 90.0098 64.9746C90.0098 64.1462 90.6814 63.4746 91.5098 63.4746C92.3382 63.4746 93.0098 64.1462 93.0098 64.9746Z" fill="white"/>
<path d="M102.01 64.9746C102.01 65.803 101.338 66.4746 100.51 66.4746C99.6814 66.4746 99.0098 65.803 99.0098 64.9746C99.0098 64.1462 99.6814 63.4746 100.51 63.4746C101.338 63.4746 102.01 64.1462 102.01 64.9746Z" fill="white"/>
<path d="M111.01 64.9746C111.01 65.803 110.338 66.4746 109.51 66.4746C108.682 66.4746 108.01 65.803 108.01 64.9746C108.01 64.1462 108.682 63.4746 109.51 63.4746C110.338 63.4746 111.01 64.1462 111.01 64.9746Z" fill="white"/>
<path d="M120.01 64.9746C120.01 65.803 119.338 66.4746 118.51 66.4746C117.682 66.4746 117.01 65.803 117.01 64.9746C117.01 64.1462 117.682 63.4746 118.51 63.4746C119.338 63.4746 120.01 64.1462 120.01 64.9746Z" fill="white"/>
<path d="M129.01 64.9746C129.01 65.803 128.338 66.4746 127.51 66.4746C126.682 66.4746 126.01 65.803 126.01 64.9746C126.01 64.1462 126.682 63.4746 127.51 63.4746C128.338 63.4746 129.01 64.1462 129.01 64.9746Z" fill="white"/>
<path d="M138.01 64.9746C138.01 65.803 137.338 66.4746 136.51 66.4746C135.682 66.4746 135.01 65.803 135.01 64.9746C135.01 64.1462 135.682 63.4746 136.51 63.4746C137.338 63.4746 138.01 64.1462 138.01 64.9746Z" fill="white"/>
<path d="M147.01 64.9746C147.01 65.803 146.338 66.4746 145.51 66.4746C144.682 66.4746 144.01 65.803 144.01 64.9746C144.01 64.1462 144.682 63.4746 145.51 63.4746C146.338 63.4746 147.01 64.1462 147.01 64.9746Z" fill="white"/>
<path d="M3.00977 73.9746C3.00977 74.803 2.3382 75.4746 1.50977 75.4746C0.681339 75.4746 0.00976562 74.803 0.00976562 73.9746C0.00976562 73.1462 0.681339 72.4746 1.50977 72.4746C2.3382 72.4746 3.00977 73.1462 3.00977 73.9746Z" fill="white"/>
<path d="M12.0098 73.9746C12.0098 74.803 11.3382 75.4746 10.5098 75.4746C9.68134 75.4746 9.00977 74.803 9.00977 73.9746C9.00977 73.1462 9.68134 72.4746 10.5098 72.4746C11.3382 72.4746 12.0098 73.1462 12.0098 73.9746Z" fill="white"/>
<path d="M21.0098 73.9746C21.0098 74.803 20.3382 75.4746 19.5098 75.4746C18.6814 75.4746 18.0098 74.803 18.0098 73.9746C18.0098 73.1462 18.6814 72.4746 19.5098 72.4746C20.3382 72.4746 21.0098 73.1462 21.0098 73.9746Z" fill="white"/>
<path d="M30.0098 73.9746C30.0098 74.803 29.3382 75.4746 28.5098 75.4746C27.6814 75.4746 27.0098 74.803 27.0098 73.9746C27.0098 73.1462 27.6814 72.4746 28.5098 72.4746C29.3382 72.4746 30.0098 73.1462 30.0098 73.9746Z" fill="white"/>
<path d="M39.0098 73.9746C39.0098 74.803 38.3382 75.4746 37.5098 75.4746C36.6814 75.4746 36.0098 74.803 36.0098 73.9746C36.0098 73.1462 36.6814 72.4746 37.5098 72.4746C38.3382 72.4746 39.0098 73.1462 39.0098 73.9746Z" fill="white"/>
<path d="M48.0098 73.9746C48.0098 74.803 47.3382 75.4746 46.5098 75.4746C45.6814 75.4746 45.0098 74.803 45.0098 73.9746C45.0098 73.1462 45.6814 72.4746 46.5098 72.4746C47.3382 72.4746 48.0098 73.1462 48.0098 73.9746Z" fill="white"/>
<path d="M57.0098 73.9746C57.0098 74.803 56.3382 75.4746 55.5098 75.4746C54.6814 75.4746 54.0098 74.803 54.0098 73.9746C54.0098 73.1462 54.6814 72.4746 55.5098 72.4746C56.3382 72.4746 57.0098 73.1462 57.0098 73.9746Z" fill="white"/>
<path d="M66.0098 73.9746C66.0098 74.803 65.3382 75.4746 64.5098 75.4746C63.6814 75.4746 63.0098 74.803 63.0098 73.9746C63.0098 73.1462 63.6814 72.4746 64.5098 72.4746C65.3382 72.4746 66.0098 73.1462 66.0098 73.9746Z" fill="white"/>
<path d="M75.0098 73.9746C75.0098 74.803 74.3382 75.4746 73.5098 75.4746C72.6814 75.4746 72.0098 74.803 72.0098 73.9746C72.0098 73.1462 72.6814 72.4746 73.5098 72.4746C74.3382 72.4746 75.0098 73.1462 75.0098 73.9746Z" fill="white"/>
<path d="M84.0098 73.9746C84.0098 74.803 83.3382 75.4746 82.5098 75.4746C81.6814 75.4746 81.0098 74.803 81.0098 73.9746C81.0098 73.1462 81.6814 72.4746 82.5098 72.4746C83.3382 72.4746 84.0098 73.1462 84.0098 73.9746Z" fill="white"/>
<path d="M93.0098 73.9746C93.0098 74.803 92.3382 75.4746 91.5098 75.4746C90.6814 75.4746 90.0098 74.803 90.0098 73.9746C90.0098 73.1462 90.6814 72.4746 91.5098 72.4746C92.3382 72.4746 93.0098 73.1462 93.0098 73.9746Z" fill="white"/>
<path d="M102.01 73.9746C102.01 74.803 101.338 75.4746 100.51 75.4746C99.6814 75.4746 99.0098 74.803 99.0098 73.9746C99.0098 73.1462 99.6814 72.4746 100.51 72.4746C101.338 72.4746 102.01 73.1462 102.01 73.9746Z" fill="white"/>
<path d="M111.01 73.9746C111.01 74.803 110.338 75.4746 109.51 75.4746C108.682 75.4746 108.01 74.803 108.01 73.9746C108.01 73.1462 108.682 72.4746 109.51 72.4746C110.338 72.4746 111.01 73.1462 111.01 73.9746Z" fill="white"/>
<path d="M120.01 73.9746C120.01 74.803 119.338 75.4746 118.51 75.4746C117.682 75.4746 117.01 74.803 117.01 73.9746C117.01 73.1462 117.682 72.4746 118.51 72.4746C119.338 72.4746 120.01 73.1462 120.01 73.9746Z" fill="white"/>
<path d="M129.01 73.9746C129.01 74.803 128.338 75.4746 127.51 75.4746C126.682 75.4746 126.01 74.803 126.01 73.9746C126.01 73.1462 126.682 72.4746 127.51 72.4746C128.338 72.4746 129.01 73.1462 129.01 73.9746Z" fill="white"/>
<path d="M138.01 73.9746C138.01 74.803 137.338 75.4746 136.51 75.4746C135.682 75.4746 135.01 74.803 135.01 73.9746C135.01 73.1462 135.682 72.4746 136.51 72.4746C137.338 72.4746 138.01 73.1462 138.01 73.9746Z" fill="white"/>
<path d="M147.01 73.9746C147.01 74.803 146.338 75.4746 145.51 75.4746C144.682 75.4746 144.01 74.803 144.01 73.9746C144.01 73.1462 144.682 72.4746 145.51 72.4746C146.338 72.4746 147.01 73.1462 147.01 73.9746Z" fill="white"/>
<path d="M3.00977 82.9746C3.00977 83.803 2.3382 84.4746 1.50977 84.4746C0.681339 84.4746 0.00976562 83.803 0.00976562 82.9746C0.00976562 82.1462 0.681339 81.4746 1.50977 81.4746C2.3382 81.4746 3.00977 82.1462 3.00977 82.9746Z" fill="white"/>
<path d="M12.0098 82.9746C12.0098 83.803 11.3382 84.4746 10.5098 84.4746C9.68134 84.4746 9.00977 83.803 9.00977 82.9746C9.00977 82.1462 9.68134 81.4746 10.5098 81.4746C11.3382 81.4746 12.0098 82.1462 12.0098 82.9746Z" fill="white"/>
<path d="M21.0098 82.9746C21.0098 83.803 20.3382 84.4746 19.5098 84.4746C18.6814 84.4746 18.0098 83.803 18.0098 82.9746C18.0098 82.1462 18.6814 81.4746 19.5098 81.4746C20.3382 81.4746 21.0098 82.1462 21.0098 82.9746Z" fill="white"/>
<path d="M30.0098 82.9746C30.0098 83.803 29.3382 84.4746 28.5098 84.4746C27.6814 84.4746 27.0098 83.803 27.0098 82.9746C27.0098 82.1462 27.6814 81.4746 28.5098 81.4746C29.3382 81.4746 30.0098 82.1462 30.0098 82.9746Z" fill="white"/>
<path d="M39.0098 82.9746C39.0098 83.803 38.3382 84.4746 37.5098 84.4746C36.6814 84.4746 36.0098 83.803 36.0098 82.9746C36.0098 82.1462 36.6814 81.4746 37.5098 81.4746C38.3382 81.4746 39.0098 82.1462 39.0098 82.9746Z" fill="white"/>
<path d="M48.0098 82.9746C48.0098 83.803 47.3382 84.4746 46.5098 84.4746C45.6814 84.4746 45.0098 83.803 45.0098 82.9746C45.0098 82.1462 45.6814 81.4746 46.5098 81.4746C47.3382 81.4746 48.0098 82.1462 48.0098 82.9746Z" fill="white"/>
<path d="M57.0098 82.9746C57.0098 83.803 56.3382 84.4746 55.5098 84.4746C54.6814 84.4746 54.0098 83.803 54.0098 82.9746C54.0098 82.1462 54.6814 81.4746 55.5098 81.4746C56.3382 81.4746 57.0098 82.1462 57.0098 82.9746Z" fill="white"/>
<path d="M66.0098 82.9746C66.0098 83.803 65.3382 84.4746 64.5098 84.4746C63.6814 84.4746 63.0098 83.803 63.0098 82.9746C63.0098 82.1462 63.6814 81.4746 64.5098 81.4746C65.3382 81.4746 66.0098 82.1462 66.0098 82.9746Z" fill="white"/>
<path d="M75.0098 82.9746C75.0098 83.803 74.3382 84.4746 73.5098 84.4746C72.6814 84.4746 72.0098 83.803 72.0098 82.9746C72.0098 82.1462 72.6814 81.4746 73.5098 81.4746C74.3382 81.4746 75.0098 82.1462 75.0098 82.9746Z" fill="white"/>
<path d="M84.0098 82.9746C84.0098 83.803 83.3382 84.4746 82.5098 84.4746C81.6814 84.4746 81.0098 83.803 81.0098 82.9746C81.0098 82.1462 81.6814 81.4746 82.5098 81.4746C83.3382 81.4746 84.0098 82.1462 84.0098 82.9746Z" fill="white"/>
<path d="M93.0098 82.9746C93.0098 83.803 92.3382 84.4746 91.5098 84.4746C90.6814 84.4746 90.0098 83.803 90.0098 82.9746C90.0098 82.1462 90.6814 81.4746 91.5098 81.4746C92.3382 81.4746 93.0098 82.1462 93.0098 82.9746Z" fill="white"/>
<path d="M102.01 82.9746C102.01 83.803 101.338 84.4746 100.51 84.4746C99.6814 84.4746 99.0098 83.803 99.0098 82.9746C99.0098 82.1462 99.6814 81.4746 100.51 81.4746C101.338 81.4746 102.01 82.1462 102.01 82.9746Z" fill="white"/>
<path d="M111.01 82.9746C111.01 83.803 110.338 84.4746 109.51 84.4746C108.682 84.4746 108.01 83.803 108.01 82.9746C108.01 82.1462 108.682 81.4746 109.51 81.4746C110.338 81.4746 111.01 82.1462 111.01 82.9746Z" fill="white"/>
<path d="M120.01 82.9746C120.01 83.803 119.338 84.4746 118.51 84.4746C117.682 84.4746 117.01 83.803 117.01 82.9746C117.01 82.1462 117.682 81.4746 118.51 81.4746C119.338 81.4746 120.01 82.1462 120.01 82.9746Z" fill="white"/>
<path d="M129.01 82.9746C129.01 83.803 128.338 84.4746 127.51 84.4746C126.682 84.4746 126.01 83.803 126.01 82.9746C126.01 82.1462 126.682 81.4746 127.51 81.4746C128.338 81.4746 129.01 82.1462 129.01 82.9746Z" fill="white"/>
<path d="M138.01 82.9746C138.01 83.803 137.338 84.4746 136.51 84.4746C135.682 84.4746 135.01 83.803 135.01 82.9746C135.01 82.1462 135.682 81.4746 136.51 81.4746C137.338 81.4746 138.01 82.1462 138.01 82.9746Z" fill="white"/>
<path d="M147.01 82.9746C147.01 83.803 146.338 84.4746 145.51 84.4746C144.682 84.4746 144.01 83.803 144.01 82.9746C144.01 82.1462 144.682 81.4746 145.51 81.4746C146.338 81.4746 147.01 82.1462 147.01 82.9746Z" fill="white"/>
<path d="M3.00977 91.9746C3.00977 92.803 2.3382 93.4746 1.50977 93.4746C0.681339 93.4746 0.00976562 92.803 0.00976562 91.9746C0.00976562 91.1462 0.681339 90.4746 1.50977 90.4746C2.3382 90.4746 3.00977 91.1462 3.00977 91.9746Z" fill="white"/>
<path d="M12.0098 91.9746C12.0098 92.803 11.3382 93.4746 10.5098 93.4746C9.68134 93.4746 9.00977 92.803 9.00977 91.9746C9.00977 91.1462 9.68134 90.4746 10.5098 90.4746C11.3382 90.4746 12.0098 91.1462 12.0098 91.9746Z" fill="white"/>
<path d="M21.0098 91.9746C21.0098 92.803 20.3382 93.4746 19.5098 93.4746C18.6814 93.4746 18.0098 92.803 18.0098 91.9746C18.0098 91.1462 18.6814 90.4746 19.5098 90.4746C20.3382 90.4746 21.0098 91.1462 21.0098 91.9746Z" fill="white"/>
<path d="M30.0098 91.9746C30.0098 92.803 29.3382 93.4746 28.5098 93.4746C27.6814 93.4746 27.0098 92.803 27.0098 91.9746C27.0098 91.1462 27.6814 90.4746 28.5098 90.4746C29.3382 90.4746 30.0098 91.1462 30.0098 91.9746Z" fill="white"/>
<path d="M39.0098 91.9746C39.0098 92.803 38.3382 93.4746 37.5098 93.4746C36.6814 93.4746 36.0098 92.803 36.0098 91.9746C36.0098 91.1462 36.6814 90.4746 37.5098 90.4746C38.3382 90.4746 39.0098 91.1462 39.0098 91.9746Z" fill="white"/>
<path d="M48.0098 91.9746C48.0098 92.803 47.3382 93.4746 46.5098 93.4746C45.6814 93.4746 45.0098 92.803 45.0098 91.9746C45.0098 91.1462 45.6814 90.4746 46.5098 90.4746C47.3382 90.4746 48.0098 91.1462 48.0098 91.9746Z" fill="white"/>
<path d="M57.0098 91.9746C57.0098 92.803 56.3382 93.4746 55.5098 93.4746C54.6814 93.4746 54.0098 92.803 54.0098 91.9746C54.0098 91.1462 54.6814 90.4746 55.5098 90.4746C56.3382 90.4746 57.0098 91.1462 57.0098 91.9746Z" fill="white"/>
<path d="M66.0098 91.9746C66.0098 92.803 65.3382 93.4746 64.5098 93.4746C63.6814 93.4746 63.0098 92.803 63.0098 91.9746C63.0098 91.1462 63.6814 90.4746 64.5098 90.4746C65.3382 90.4746 66.0098 91.1462 66.0098 91.9746Z" fill="white"/>
<path d="M75.0098 91.9746C75.0098 92.803 74.3382 93.4746 73.5098 93.4746C72.6814 93.4746 72.0098 92.803 72.0098 91.9746C72.0098 91.1462 72.6814 90.4746 73.5098 90.4746C74.3382 90.4746 75.0098 91.1462 75.0098 91.9746Z" fill="white"/>
<path d="M84.0098 91.9746C84.0098 92.803 83.3382 93.4746 82.5098 93.4746C81.6814 93.4746 81.0098 92.803 81.0098 91.9746C81.0098 91.1462 81.6814 90.4746 82.5098 90.4746C83.3382 90.4746 84.0098 91.1462 84.0098 91.9746Z" fill="white"/>
<path d="M93.0098 91.9746C93.0098 92.803 92.3382 93.4746 91.5098 93.4746C90.6814 93.4746 90.0098 92.803 90.0098 91.9746C90.0098 91.1462 90.6814 90.4746 91.5098 90.4746C92.3382 90.4746 93.0098 91.1462 93.0098 91.9746Z" fill="white"/>
<path d="M102.01 91.9746C102.01 92.803 101.338 93.4746 100.51 93.4746C99.6814 93.4746 99.0098 92.803 99.0098 91.9746C99.0098 91.1462 99.6814 90.4746 100.51 90.4746C101.338 90.4746 102.01 91.1462 102.01 91.9746Z" fill="white"/>
<path d="M111.01 91.9746C111.01 92.803 110.338 93.4746 109.51 93.4746C108.682 93.4746 108.01 92.803 108.01 91.9746C108.01 91.1462 108.682 90.4746 109.51 90.4746C110.338 90.4746 111.01 91.1462 111.01 91.9746Z" fill="white"/>
<path d="M120.01 91.9746C120.01 92.803 119.338 93.4746 118.51 93.4746C117.682 93.4746 117.01 92.803 117.01 91.9746C117.01 91.1462 117.682 90.4746 118.51 90.4746C119.338 90.4746 120.01 91.1462 120.01 91.9746Z" fill="white"/>
<path d="M129.01 91.9746C129.01 92.803 128.338 93.4746 127.51 93.4746C126.682 93.4746 126.01 92.803 126.01 91.9746C126.01 91.1462 126.682 90.4746 127.51 90.4746C128.338 90.4746 129.01 91.1462 129.01 91.9746Z" fill="white"/>
<path d="M138.01 91.9746C138.01 92.803 137.338 93.4746 136.51 93.4746C135.682 93.4746 135.01 92.803 135.01 91.9746C135.01 91.1462 135.682 90.4746 136.51 90.4746C137.338 90.4746 138.01 91.1462 138.01 91.9746Z" fill="white"/>
<path d="M147.01 91.9746C147.01 92.803 146.338 93.4746 145.51 93.4746C144.682 93.4746 144.01 92.803 144.01 91.9746C144.01 91.1462 144.682 90.4746 145.51 90.4746C146.338 90.4746 147.01 91.1462 147.01 91.9746Z" fill="white"/>
<path d="M3.00977 100.975C3.00977 101.803 2.3382 102.475 1.50977 102.475C0.681339 102.475 0.00976562 101.803 0.00976562 100.975C0.00976562 100.146 0.681339 99.4746 1.50977 99.4746C2.3382 99.4746 3.00977 100.146 3.00977 100.975Z" fill="white"/>
<path d="M12.0098 100.975C12.0098 101.803 11.3382 102.475 10.5098 102.475C9.68134 102.475 9.00977 101.803 9.00977 100.975C9.00977 100.146 9.68134 99.4746 10.5098 99.4746C11.3382 99.4746 12.0098 100.146 12.0098 100.975Z" fill="white"/>
<path d="M21.0098 100.975C21.0098 101.803 20.3382 102.475 19.5098 102.475C18.6814 102.475 18.0098 101.803 18.0098 100.975C18.0098 100.146 18.6814 99.4746 19.5098 99.4746C20.3382 99.4746 21.0098 100.146 21.0098 100.975Z" fill="white"/>
<path d="M30.0098 100.975C30.0098 101.803 29.3382 102.475 28.5098 102.475C27.6814 102.475 27.0098 101.803 27.0098 100.975C27.0098 100.146 27.6814 99.4746 28.5098 99.4746C29.3382 99.4746 30.0098 100.146 30.0098 100.975Z" fill="white"/>
<path d="M39.0098 100.975C39.0098 101.803 38.3382 102.475 37.5098 102.475C36.6814 102.475 36.0098 101.803 36.0098 100.975C36.0098 100.146 36.6814 99.4746 37.5098 99.4746C38.3382 99.4746 39.0098 100.146 39.0098 100.975Z" fill="white"/>
<path d="M48.0098 100.975C48.0098 101.803 47.3382 102.475 46.5098 102.475C45.6814 102.475 45.0098 101.803 45.0098 100.975C45.0098 100.146 45.6814 99.4746 46.5098 99.4746C47.3382 99.4746 48.0098 100.146 48.0098 100.975Z" fill="white"/>
<path d="M57.0098 100.975C57.0098 101.803 56.3382 102.475 55.5098 102.475C54.6814 102.475 54.0098 101.803 54.0098 100.975C54.0098 100.146 54.6814 99.4746 55.5098 99.4746C56.3382 99.4746 57.0098 100.146 57.0098 100.975Z" fill="white"/>
<path d="M66.0098 100.975C66.0098 101.803 65.3382 102.475 64.5098 102.475C63.6814 102.475 63.0098 101.803 63.0098 100.975C63.0098 100.146 63.6814 99.4746 64.5098 99.4746C65.3382 99.4746 66.0098 100.146 66.0098 100.975Z" fill="white"/>
<path d="M75.0098 100.975C75.0098 101.803 74.3382 102.475 73.5098 102.475C72.6814 102.475 72.0098 101.803 72.0098 100.975C72.0098 100.146 72.6814 99.4746 73.5098 99.4746C74.3382 99.4746 75.0098 100.146 75.0098 100.975Z" fill="white"/>
<path d="M84.0098 100.975C84.0098 101.803 83.3382 102.475 82.5098 102.475C81.6814 102.475 81.0098 101.803 81.0098 100.975C81.0098 100.146 81.6814 99.4746 82.5098 99.4746C83.3382 99.4746 84.0098 100.146 84.0098 100.975Z" fill="white"/>
<path d="M93.0098 100.975C93.0098 101.803 92.3382 102.475 91.5098 102.475C90.6814 102.475 90.0098 101.803 90.0098 100.975C90.0098 100.146 90.6814 99.4746 91.5098 99.4746C92.3382 99.4746 93.0098 100.146 93.0098 100.975Z" fill="white"/>
<path d="M102.01 100.975C102.01 101.803 101.338 102.475 100.51 102.475C99.6814 102.475 99.0098 101.803 99.0098 100.975C99.0098 100.146 99.6814 99.4746 100.51 99.4746C101.338 99.4746 102.01 100.146 102.01 100.975Z" fill="white"/>
<path d="M111.01 100.975C111.01 101.803 110.338 102.475 109.51 102.475C108.682 102.475 108.01 101.803 108.01 100.975C108.01 100.146 108.682 99.4746 109.51 99.4746C110.338 99.4746 111.01 100.146 111.01 100.975Z" fill="white"/>
<path d="M120.01 100.975C120.01 101.803 119.338 102.475 118.51 102.475C117.682 102.475 117.01 101.803 117.01 100.975C117.01 100.146 117.682 99.4746 118.51 99.4746C119.338 99.4746 120.01 100.146 120.01 100.975Z" fill="white"/>
<path d="M129.01 100.975C129.01 101.803 128.338 102.475 127.51 102.475C126.682 102.475 126.01 101.803 126.01 100.975C126.01 100.146 126.682 99.4746 127.51 99.4746C128.338 99.4746 129.01 100.146 129.01 100.975Z" fill="white"/>
<path d="M138.01 100.975C138.01 101.803 137.338 102.475 136.51 102.475C135.682 102.475 135.01 101.803 135.01 100.975C135.01 100.146 135.682 99.4746 136.51 99.4746C137.338 99.4746 138.01 100.146 138.01 100.975Z" fill="white"/>
<path d="M147.01 100.975C147.01 101.803 146.338 102.475 145.51 102.475C144.682 102.475 144.01 101.803 144.01 100.975C144.01 100.146 144.682 99.4746 145.51 99.4746C146.338 99.4746 147.01 100.146 147.01 100.975Z" fill="white"/>
<path d="M3.00977 109.975C3.00977 110.803 2.3382 111.475 1.50977 111.475C0.681339 111.475 0.00976562 110.803 0.00976562 109.975C0.00976562 109.147 0.681339 108.475 1.50977 108.475C2.3382 108.475 3.00977 109.147 3.00977 109.975Z" fill="white"/>
<path d="M12.0098 109.975C12.0098 110.803 11.3382 111.475 10.5098 111.475C9.68134 111.475 9.00977 110.803 9.00977 109.975C9.00977 109.147 9.68134 108.475 10.5098 108.475C11.3382 108.475 12.0098 109.147 12.0098 109.975Z" fill="white"/>
<path d="M21.0098 109.975C21.0098 110.803 20.3382 111.475 19.5098 111.475C18.6814 111.475 18.0098 110.803 18.0098 109.975C18.0098 109.147 18.6814 108.475 19.5098 108.475C20.3382 108.475 21.0098 109.147 21.0098 109.975Z" fill="white"/>
<path d="M30.0098 109.975C30.0098 110.803 29.3382 111.475 28.5098 111.475C27.6814 111.475 27.0098 110.803 27.0098 109.975C27.0098 109.147 27.6814 108.475 28.5098 108.475C29.3382 108.475 30.0098 109.147 30.0098 109.975Z" fill="white"/>
<path d="M39.0098 109.975C39.0098 110.803 38.3382 111.475 37.5098 111.475C36.6814 111.475 36.0098 110.803 36.0098 109.975C36.0098 109.147 36.6814 108.475 37.5098 108.475C38.3382 108.475 39.0098 109.147 39.0098 109.975Z" fill="white"/>
<path d="M48.0098 109.975C48.0098 110.803 47.3382 111.475 46.5098 111.475C45.6814 111.475 45.0098 110.803 45.0098 109.975C45.0098 109.147 45.6814 108.475 46.5098 108.475C47.3382 108.475 48.0098 109.147 48.0098 109.975Z" fill="white"/>
<path d="M57.0098 109.975C57.0098 110.803 56.3382 111.475 55.5098 111.475C54.6814 111.475 54.0098 110.803 54.0098 109.975C54.0098 109.147 54.6814 108.475 55.5098 108.475C56.3382 108.475 57.0098 109.147 57.0098 109.975Z" fill="white"/>
<path d="M66.0098 109.975C66.0098 110.803 65.3382 111.475 64.5098 111.475C63.6814 111.475 63.0098 110.803 63.0098 109.975C63.0098 109.147 63.6814 108.475 64.5098 108.475C65.3382 108.475 66.0098 109.147 66.0098 109.975Z" fill="white"/>
<path d="M75.0098 109.975C75.0098 110.803 74.3382 111.475 73.5098 111.475C72.6814 111.475 72.0098 110.803 72.0098 109.975C72.0098 109.147 72.6814 108.475 73.5098 108.475C74.3382 108.475 75.0098 109.147 75.0098 109.975Z" fill="white"/>
<path d="M84.0098 109.975C84.0098 110.803 83.3382 111.475 82.5098 111.475C81.6814 111.475 81.0098 110.803 81.0098 109.975C81.0098 109.147 81.6814 108.475 82.5098 108.475C83.3382 108.475 84.0098 109.147 84.0098 109.975Z" fill="white"/>
<path d="M93.0098 109.975C93.0098 110.803 92.3382 111.475 91.5098 111.475C90.6814 111.475 90.0098 110.803 90.0098 109.975C90.0098 109.147 90.6814 108.475 91.5098 108.475C92.3382 108.475 93.0098 109.147 93.0098 109.975Z" fill="white"/>
<path d="M102.01 109.975C102.01 110.803 101.338 111.475 100.51 111.475C99.6814 111.475 99.0098 110.803 99.0098 109.975C99.0098 109.147 99.6814 108.475 100.51 108.475C101.338 108.475 102.01 109.147 102.01 109.975Z" fill="white"/>
<path d="M111.01 109.975C111.01 110.803 110.338 111.475 109.51 111.475C108.682 111.475 108.01 110.803 108.01 109.975C108.01 109.147 108.682 108.475 109.51 108.475C110.338 108.475 111.01 109.147 111.01 109.975Z" fill="white"/>
<path d="M120.01 109.975C120.01 110.803 119.338 111.475 118.51 111.475C117.682 111.475 117.01 110.803 117.01 109.975C117.01 109.147 117.682 108.475 118.51 108.475C119.338 108.475 120.01 109.147 120.01 109.975Z" fill="white"/>
<path d="M129.01 109.975C129.01 110.803 128.338 111.475 127.51 111.475C126.682 111.475 126.01 110.803 126.01 109.975C126.01 109.147 126.682 108.475 127.51 108.475C128.338 108.475 129.01 109.147 129.01 109.975Z" fill="white"/>
<path d="M138.01 109.975C138.01 110.803 137.338 111.475 136.51 111.475C135.682 111.475 135.01 110.803 135.01 109.975C135.01 109.147 135.682 108.475 136.51 108.475C137.338 108.475 138.01 109.147 138.01 109.975Z" fill="white"/>
<path d="M147.01 109.975C147.01 110.803 146.338 111.475 145.51 111.475C144.682 111.475 144.01 110.803 144.01 109.975C144.01 109.147 144.682 108.475 145.51 108.475C146.338 108.475 147.01 109.147 147.01 109.975Z" fill="white"/>
<path d="M3.00977 118.975C3.00977 119.803 2.3382 120.475 1.50977 120.475C0.681339 120.475 0.00976562 119.803 0.00976562 118.975C0.00976562 118.147 0.681339 117.475 1.50977 117.475C2.3382 117.475 3.00977 118.147 3.00977 118.975Z" fill="white"/>
<path d="M12.0098 118.975C12.0098 119.803 11.3382 120.475 10.5098 120.475C9.68134 120.475 9.00977 119.803 9.00977 118.975C9.00977 118.147 9.68134 117.475 10.5098 117.475C11.3382 117.475 12.0098 118.147 12.0098 118.975Z" fill="white"/>
<path d="M21.0098 118.975C21.0098 119.803 20.3382 120.475 19.5098 120.475C18.6814 120.475 18.0098 119.803 18.0098 118.975C18.0098 118.147 18.6814 117.475 19.5098 117.475C20.3382 117.475 21.0098 118.147 21.0098 118.975Z" fill="white"/>
<path d="M30.0098 118.975C30.0098 119.803 29.3382 120.475 28.5098 120.475C27.6814 120.475 27.0098 119.803 27.0098 118.975C27.0098 118.147 27.6814 117.475 28.5098 117.475C29.3382 117.475 30.0098 118.147 30.0098 118.975Z" fill="white"/>
<path d="M39.0098 118.975C39.0098 119.803 38.3382 120.475 37.5098 120.475C36.6814 120.475 36.0098 119.803 36.0098 118.975C36.0098 118.147 36.6814 117.475 37.5098 117.475C38.3382 117.475 39.0098 118.147 39.0098 118.975Z" fill="white"/>
<path d="M48.0098 118.975C48.0098 119.803 47.3382 120.475 46.5098 120.475C45.6814 120.475 45.0098 119.803 45.0098 118.975C45.0098 118.147 45.6814 117.475 46.5098 117.475C47.3382 117.475 48.0098 118.147 48.0098 118.975Z" fill="white"/>
<path d="M57.0098 118.975C57.0098 119.803 56.3382 120.475 55.5098 120.475C54.6814 120.475 54.0098 119.803 54.0098 118.975C54.0098 118.147 54.6814 117.475 55.5098 117.475C56.3382 117.475 57.0098 118.147 57.0098 118.975Z" fill="white"/>
<path d="M66.0098 118.975C66.0098 119.803 65.3382 120.475 64.5098 120.475C63.6814 120.475 63.0098 119.803 63.0098 118.975C63.0098 118.147 63.6814 117.475 64.5098 117.475C65.3382 117.475 66.0098 118.147 66.0098 118.975Z" fill="white"/>
<path d="M75.0098 118.975C75.0098 119.803 74.3382 120.475 73.5098 120.475C72.6814 120.475 72.0098 119.803 72.0098 118.975C72.0098 118.147 72.6814 117.475 73.5098 117.475C74.3382 117.475 75.0098 118.147 75.0098 118.975Z" fill="white"/>
<path d="M84.0098 118.975C84.0098 119.803 83.3382 120.475 82.5098 120.475C81.6814 120.475 81.0098 119.803 81.0098 118.975C81.0098 118.147 81.6814 117.475 82.5098 117.475C83.3382 117.475 84.0098 118.147 84.0098 118.975Z" fill="white"/>
<path d="M93.0098 118.975C93.0098 119.803 92.3382 120.475 91.5098 120.475C90.6814 120.475 90.0098 119.803 90.0098 118.975C90.0098 118.147 90.6814 117.475 91.5098 117.475C92.3382 117.475 93.0098 118.147 93.0098 118.975Z" fill="white"/>
<path d="M102.01 118.975C102.01 119.803 101.338 120.475 100.51 120.475C99.6814 120.475 99.0098 119.803 99.0098 118.975C99.0098 118.147 99.6814 117.475 100.51 117.475C101.338 117.475 102.01 118.147 102.01 118.975Z" fill="white"/>
<path d="M111.01 118.975C111.01 119.803 110.338 120.475 109.51 120.475C108.682 120.475 108.01 119.803 108.01 118.975C108.01 118.147 108.682 117.475 109.51 117.475C110.338 117.475 111.01 118.147 111.01 118.975Z" fill="white"/>
<path d="M120.01 118.975C120.01 119.803 119.338 120.475 118.51 120.475C117.682 120.475 117.01 119.803 117.01 118.975C117.01 118.147 117.682 117.475 118.51 117.475C119.338 117.475 120.01 118.147 120.01 118.975Z" fill="white"/>
<path d="M129.01 118.975C129.01 119.803 128.338 120.475 127.51 120.475C126.682 120.475 126.01 119.803 126.01 118.975C126.01 118.147 126.682 117.475 127.51 117.475C128.338 117.475 129.01 118.147 129.01 118.975Z" fill="white"/>
<path d="M138.01 118.975C138.01 119.803 137.338 120.475 136.51 120.475C135.682 120.475 135.01 119.803 135.01 118.975C135.01 118.147 135.682 117.475 136.51 117.475C137.338 117.475 138.01 118.147 138.01 118.975Z" fill="white"/>
<path d="M147.01 118.975C147.01 119.803 146.338 120.475 145.51 120.475C144.682 120.475 144.01 119.803 144.01 118.975C144.01 118.147 144.682 117.475 145.51 117.475C146.338 117.475 147.01 118.147 147.01 118.975Z" fill="white"/>
<path d="M3.00977 127.975C3.00977 128.803 2.3382 129.475 1.50977 129.475C0.681339 129.475 0.00976562 128.803 0.00976562 127.975C0.00976562 127.147 0.681339 126.475 1.50977 126.475C2.3382 126.475 3.00977 127.147 3.00977 127.975Z" fill="white"/>
<path d="M12.0098 127.975C12.0098 128.803 11.3382 129.475 10.5098 129.475C9.68134 129.475 9.00977 128.803 9.00977 127.975C9.00977 127.147 9.68134 126.475 10.5098 126.475C11.3382 126.475 12.0098 127.147 12.0098 127.975Z" fill="white"/>
<path d="M21.0098 127.975C21.0098 128.803 20.3382 129.475 19.5098 129.475C18.6814 129.475 18.0098 128.803 18.0098 127.975C18.0098 127.147 18.6814 126.475 19.5098 126.475C20.3382 126.475 21.0098 127.147 21.0098 127.975Z" fill="white"/>
<path d="M30.0098 127.975C30.0098 128.803 29.3382 129.475 28.5098 129.475C27.6814 129.475 27.0098 128.803 27.0098 127.975C27.0098 127.147 27.6814 126.475 28.5098 126.475C29.3382 126.475 30.0098 127.147 30.0098 127.975Z" fill="white"/>
<path d="M39.0098 127.975C39.0098 128.803 38.3382 129.475 37.5098 129.475C36.6814 129.475 36.0098 128.803 36.0098 127.975C36.0098 127.147 36.6814 126.475 37.5098 126.475C38.3382 126.475 39.0098 127.147 39.0098 127.975Z" fill="white"/>
<path d="M48.0098 127.975C48.0098 128.803 47.3382 129.475 46.5098 129.475C45.6814 129.475 45.0098 128.803 45.0098 127.975C45.0098 127.147 45.6814 126.475 46.5098 126.475C47.3382 126.475 48.0098 127.147 48.0098 127.975Z" fill="white"/>
<path d="M57.0098 127.975C57.0098 128.803 56.3382 129.475 55.5098 129.475C54.6814 129.475 54.0098 128.803 54.0098 127.975C54.0098 127.147 54.6814 126.475 55.5098 126.475C56.3382 126.475 57.0098 127.147 57.0098 127.975Z" fill="white"/>
<path d="M66.0098 127.975C66.0098 128.803 65.3382 129.475 64.5098 129.475C63.6814 129.475 63.0098 128.803 63.0098 127.975C63.0098 127.147 63.6814 126.475 64.5098 126.475C65.3382 126.475 66.0098 127.147 66.0098 127.975Z" fill="white"/>
<path d="M75.0098 127.975C75.0098 128.803 74.3382 129.475 73.5098 129.475C72.6814 129.475 72.0098 128.803 72.0098 127.975C72.0098 127.147 72.6814 126.475 73.5098 126.475C74.3382 126.475 75.0098 127.147 75.0098 127.975Z" fill="white"/>
<path d="M84.0098 127.975C84.0098 128.803 83.3382 129.475 82.5098 129.475C81.6814 129.475 81.0098 128.803 81.0098 127.975C81.0098 127.147 81.6814 126.475 82.5098 126.475C83.3382 126.475 84.0098 127.147 84.0098 127.975Z" fill="white"/>
<path d="M93.0098 127.975C93.0098 128.803 92.3382 129.475 91.5098 129.475C90.6814 129.475 90.0098 128.803 90.0098 127.975C90.0098 127.147 90.6814 126.475 91.5098 126.475C92.3382 126.475 93.0098 127.147 93.0098 127.975Z" fill="white"/>
<path d="M102.01 127.975C102.01 128.803 101.338 129.475 100.51 129.475C99.6814 129.475 99.0098 128.803 99.0098 127.975C99.0098 127.147 99.6814 126.475 100.51 126.475C101.338 126.475 102.01 127.147 102.01 127.975Z" fill="white"/>
<path d="M111.01 127.975C111.01 128.803 110.338 129.475 109.51 129.475C108.682 129.475 108.01 128.803 108.01 127.975C108.01 127.147 108.682 126.475 109.51 126.475C110.338 126.475 111.01 127.147 111.01 127.975Z" fill="white"/>
<path d="M120.01 127.975C120.01 128.803 119.338 129.475 118.51 129.475C117.682 129.475 117.01 128.803 117.01 127.975C117.01 127.147 117.682 126.475 118.51 126.475C119.338 126.475 120.01 127.147 120.01 127.975Z" fill="white"/>
<path d="M129.01 127.975C129.01 128.803 128.338 129.475 127.51 129.475C126.682 129.475 126.01 128.803 126.01 127.975C126.01 127.147 126.682 126.475 127.51 126.475C128.338 126.475 129.01 127.147 129.01 127.975Z" fill="white"/>
<path d="M138.01 127.975C138.01 128.803 137.338 129.475 136.51 129.475C135.682 129.475 135.01 128.803 135.01 127.975C135.01 127.147 135.682 126.475 136.51 126.475C137.338 126.475 138.01 127.147 138.01 127.975Z" fill="white"/>
<path d="M147.01 127.975C147.01 128.803 146.338 129.475 145.51 129.475C144.682 129.475 144.01 128.803 144.01 127.975C144.01 127.147 144.682 126.475 145.51 126.475C146.338 126.475 147.01 127.147 147.01 127.975Z" fill="white"/>
<path d="M3.00977 136.975C3.00977 137.803 2.3382 138.475 1.50977 138.475C0.681339 138.475 0.00976562 137.803 0.00976562 136.975C0.00976562 136.147 0.681339 135.475 1.50977 135.475C2.3382 135.475 3.00977 136.147 3.00977 136.975Z" fill="white"/>
<path d="M12.0098 136.975C12.0098 137.803 11.3382 138.475 10.5098 138.475C9.68134 138.475 9.00977 137.803 9.00977 136.975C9.00977 136.147 9.68134 135.475 10.5098 135.475C11.3382 135.475 12.0098 136.147 12.0098 136.975Z" fill="white"/>
<path d="M21.0098 136.975C21.0098 137.803 20.3382 138.475 19.5098 138.475C18.6814 138.475 18.0098 137.803 18.0098 136.975C18.0098 136.147 18.6814 135.475 19.5098 135.475C20.3382 135.475 21.0098 136.147 21.0098 136.975Z" fill="white"/>
<path d="M30.0098 136.975C30.0098 137.803 29.3382 138.475 28.5098 138.475C27.6814 138.475 27.0098 137.803 27.0098 136.975C27.0098 136.147 27.6814 135.475 28.5098 135.475C29.3382 135.475 30.0098 136.147 30.0098 136.975Z" fill="white"/>
<path d="M39.0098 136.975C39.0098 137.803 38.3382 138.475 37.5098 138.475C36.6814 138.475 36.0098 137.803 36.0098 136.975C36.0098 136.147 36.6814 135.475 37.5098 135.475C38.3382 135.475 39.0098 136.147 39.0098 136.975Z" fill="white"/>
<path d="M48.0098 136.975C48.0098 137.803 47.3382 138.475 46.5098 138.475C45.6814 138.475 45.0098 137.803 45.0098 136.975C45.0098 136.147 45.6814 135.475 46.5098 135.475C47.3382 135.475 48.0098 136.147 48.0098 136.975Z" fill="white"/>
<path d="M57.0098 136.975C57.0098 137.803 56.3382 138.475 55.5098 138.475C54.6814 138.475 54.0098 137.803 54.0098 136.975C54.0098 136.147 54.6814 135.475 55.5098 135.475C56.3382 135.475 57.0098 136.147 57.0098 136.975Z" fill="white"/>
<path d="M66.0098 136.975C66.0098 137.803 65.3382 138.475 64.5098 138.475C63.6814 138.475 63.0098 137.803 63.0098 136.975C63.0098 136.147 63.6814 135.475 64.5098 135.475C65.3382 135.475 66.0098 136.147 66.0098 136.975Z" fill="white"/>
<path d="M75.0098 136.975C75.0098 137.803 74.3382 138.475 73.5098 138.475C72.6814 138.475 72.0098 137.803 72.0098 136.975C72.0098 136.147 72.6814 135.475 73.5098 135.475C74.3382 135.475 75.0098 136.147 75.0098 136.975Z" fill="white"/>
<path d="M84.0098 136.975C84.0098 137.803 83.3382 138.475 82.5098 138.475C81.6814 138.475 81.0098 137.803 81.0098 136.975C81.0098 136.147 81.6814 135.475 82.5098 135.475C83.3382 135.475 84.0098 136.147 84.0098 136.975Z" fill="white"/>
<path d="M93.0098 136.975C93.0098 137.803 92.3382 138.475 91.5098 138.475C90.6814 138.475 90.0098 137.803 90.0098 136.975C90.0098 136.147 90.6814 135.475 91.5098 135.475C92.3382 135.475 93.0098 136.147 93.0098 136.975Z" fill="white"/>
<path d="M102.01 136.975C102.01 137.803 101.338 138.475 100.51 138.475C99.6814 138.475 99.0098 137.803 99.0098 136.975C99.0098 136.147 99.6814 135.475 100.51 135.475C101.338 135.475 102.01 136.147 102.01 136.975Z" fill="white"/>
<path d="M111.01 136.975C111.01 137.803 110.338 138.475 109.51 138.475C108.682 138.475 108.01 137.803 108.01 136.975C108.01 136.147 108.682 135.475 109.51 135.475C110.338 135.475 111.01 136.147 111.01 136.975Z" fill="white"/>
<path d="M120.01 136.975C120.01 137.803 119.338 138.475 118.51 138.475C117.682 138.475 117.01 137.803 117.01 136.975C117.01 136.147 117.682 135.475 118.51 135.475C119.338 135.475 120.01 136.147 120.01 136.975Z" fill="white"/>
<path d="M129.01 136.975C129.01 137.803 128.338 138.475 127.51 138.475C126.682 138.475 126.01 137.803 126.01 136.975C126.01 136.147 126.682 135.475 127.51 135.475C128.338 135.475 129.01 136.147 129.01 136.975Z" fill="white"/>
<path d="M138.01 136.975C138.01 137.803 137.338 138.475 136.51 138.475C135.682 138.475 135.01 137.803 135.01 136.975C135.01 136.147 135.682 135.475 136.51 135.475C137.338 135.475 138.01 136.147 138.01 136.975Z" fill="white"/>
<path d="M147.01 136.975C147.01 137.803 146.338 138.475 145.51 138.475C144.682 138.475 144.01 137.803 144.01 136.975C144.01 136.147 144.682 135.475 145.51 135.475C146.338 135.475 147.01 136.147 147.01 136.975Z" fill="white"/>
<path d="M3.00977 145.975C3.00977 146.803 2.3382 147.475 1.50977 147.475C0.681339 147.475 0.00976562 146.803 0.00976562 145.975C0.00976562 145.147 0.681339 144.475 1.50977 144.475C2.3382 144.475 3.00977 145.147 3.00977 145.975Z" fill="white"/>
<path d="M12.0098 145.975C12.0098 146.803 11.3382 147.475 10.5098 147.475C9.68134 147.475 9.00977 146.803 9.00977 145.975C9.00977 145.147 9.68134 144.475 10.5098 144.475C11.3382 144.475 12.0098 145.147 12.0098 145.975Z" fill="white"/>
<path d="M21.0098 145.975C21.0098 146.803 20.3382 147.475 19.5098 147.475C18.6814 147.475 18.0098 146.803 18.0098 145.975C18.0098 145.147 18.6814 144.475 19.5098 144.475C20.3382 144.475 21.0098 145.147 21.0098 145.975Z" fill="white"/>
<path d="M30.0098 145.975C30.0098 146.803 29.3382 147.475 28.5098 147.475C27.6814 147.475 27.0098 146.803 27.0098 145.975C27.0098 145.147 27.6814 144.475 28.5098 144.475C29.3382 144.475 30.0098 145.147 30.0098 145.975Z" fill="white"/>
<path d="M39.0098 145.975C39.0098 146.803 38.3382 147.475 37.5098 147.475C36.6814 147.475 36.0098 146.803 36.0098 145.975C36.0098 145.147 36.6814 144.475 37.5098 144.475C38.3382 144.475 39.0098 145.147 39.0098 145.975Z" fill="white"/>
<path d="M48.0098 145.975C48.0098 146.803 47.3382 147.475 46.5098 147.475C45.6814 147.475 45.0098 146.803 45.0098 145.975C45.0098 145.147 45.6814 144.475 46.5098 144.475C47.3382 144.475 48.0098 145.147 48.0098 145.975Z" fill="white"/>
<path d="M57.0098 145.975C57.0098 146.803 56.3382 147.475 55.5098 147.475C54.6814 147.475 54.0098 146.803 54.0098 145.975C54.0098 145.147 54.6814 144.475 55.5098 144.475C56.3382 144.475 57.0098 145.147 57.0098 145.975Z" fill="white"/>
<path d="M66.0098 145.975C66.0098 146.803 65.3382 147.475 64.5098 147.475C63.6814 147.475 63.0098 146.803 63.0098 145.975C63.0098 145.147 63.6814 144.475 64.5098 144.475C65.3382 144.475 66.0098 145.147 66.0098 145.975Z" fill="white"/>
<path d="M75.0098 145.975C75.0098 146.803 74.3382 147.475 73.5098 147.475C72.6814 147.475 72.0098 146.803 72.0098 145.975C72.0098 145.147 72.6814 144.475 73.5098 144.475C74.3382 144.475 75.0098 145.147 75.0098 145.975Z" fill="white"/>
<path d="M84.0098 145.975C84.0098 146.803 83.3382 147.475 82.5098 147.475C81.6814 147.475 81.0098 146.803 81.0098 145.975C81.0098 145.147 81.6814 144.475 82.5098 144.475C83.3382 144.475 84.0098 145.147 84.0098 145.975Z" fill="white"/>
<path d="M93.0098 145.975C93.0098 146.803 92.3382 147.475 91.5098 147.475C90.6814 147.475 90.0098 146.803 90.0098 145.975C90.0098 145.147 90.6814 144.475 91.5098 144.475C92.3382 144.475 93.0098 145.147 93.0098 145.975Z" fill="white"/>
<path d="M102.01 145.975C102.01 146.803 101.338 147.475 100.51 147.475C99.6814 147.475 99.0098 146.803 99.0098 145.975C99.0098 145.147 99.6814 144.475 100.51 144.475C101.338 144.475 102.01 145.147 102.01 145.975Z" fill="white"/>
<path d="M111.01 145.975C111.01 146.803 110.338 147.475 109.51 147.475C108.682 147.475 108.01 146.803 108.01 145.975C108.01 145.147 108.682 144.475 109.51 144.475C110.338 144.475 111.01 145.147 111.01 145.975Z" fill="white"/>
<path d="M120.01 145.975C120.01 146.803 119.338 147.475 118.51 147.475C117.682 147.475 117.01 146.803 117.01 145.975C117.01 145.147 117.682 144.475 118.51 144.475C119.338 144.475 120.01 145.147 120.01 145.975Z" fill="white"/>
<path d="M129.01 145.975C129.01 146.803 128.338 147.475 127.51 147.475C126.682 147.475 126.01 146.803 126.01 145.975C126.01 145.147 126.682 144.475 127.51 144.475C128.338 144.475 129.01 145.147 129.01 145.975Z" fill="white"/>
<path d="M138.01 145.975C138.01 146.803 137.338 147.475 136.51 147.475C135.682 147.475 135.01 146.803 135.01 145.975C135.01 145.147 135.682 144.475 136.51 144.475C137.338 144.475 138.01 145.147 138.01 145.975Z" fill="white"/>
<path d="M147.01 145.975C147.01 146.803 146.338 147.475 145.51 147.475C144.682 147.475 144.01 146.803 144.01 145.975C144.01 145.147 144.682 144.475 145.51 144.475C146.338 144.475 147.01 145.147 147.01 145.975Z" fill="white"/>
</g>
</g>
</g>
<defs>
<clipPath id="clip0_8_5017">
<rect width="146.99" height="146.99" fill="white" transform="translate(0.00976562 0.474609)"/>
</clipPath>
<clipPath id="clip1_8_5017">
<rect width="147" height="147" fill="white" transform="translate(0.00976562 0.474609)"/>
</clipPath>
</defs>
</svg>
