<svg width="105" height="65" viewBox="0 0 105 65" fill="none" xmlns="http://www.w3.org/2000/svg">
<g clip-path="url(#clip0_8_4583)">
<g clip-path="url(#clip1_8_4583)">
<g clip-path="url(#clip2_8_4583)">
<path fill-rule="evenodd" clip-rule="evenodd" d="M29.3008 3.32312C19.929 3.09158 10.3518 3.55466 1.39091 0.270991C0.856784 0.077339 0.26927 0.359402 0.0761648 0.90668C-0.112832 1.45396 0.162449 2.05594 0.696571 2.25381C9.86704 5.61325 19.662 5.19229 29.2515 5.42804C29.8186 5.44487 30.291 4.98179 30.3033 4.40084C30.3198 3.81988 29.8678 3.33996 29.3008 3.32312Z" fill="#F1FF9D"/>
<path fill-rule="evenodd" clip-rule="evenodd" d="M30.1428 17.2648C27.2216 20.0189 24.0333 22.0821 20.1794 23.1046C19.6289 23.2503 19.3002 23.825 19.4398 24.3874C19.5837 24.9499 20.1465 25.2879 20.6929 25.1422C24.8838 24.0309 28.3555 21.8072 31.5315 18.8144C31.9506 18.4212 31.9794 17.7548 31.5932 17.327C31.211 16.8998 30.5577 16.8716 30.1428 17.2648Z" fill="#F1FF9D"/>
<path fill-rule="evenodd" clip-rule="evenodd" d="M38.2699 47.3329C36.9305 52.0373 34.2927 55.7176 30.2498 58.3752C29.7732 58.6889 29.6336 59.3406 29.9417 59.8293C30.2457 60.318 30.8826 60.4604 31.3591 60.1468C35.8334 57.2041 38.7588 53.1315 40.242 47.9226C40.4023 47.3653 40.0859 46.7801 39.5436 46.6176C38.997 46.4547 38.426 46.7755 38.2699 47.3329Z" fill="#F1FF9D"/>
<path fill-rule="evenodd" clip-rule="evenodd" d="M84.4302 53.7172C85.2273 52.7561 85.9422 51.7206 86.5503 50.618C86.8214 50.1271 87.2981 49.0839 87.372 48.1894C87.4541 47.2363 87.1378 46.4321 86.3244 46.0086C85.2437 45.447 84.3809 45.5055 83.7153 45.8453C83.0744 46.1715 82.5732 46.8127 82.2568 47.6723C81.6529 49.3154 81.7432 51.8266 82.0596 53.2596C81.2091 54.1588 80.2764 54.9743 79.278 55.6992C71.8414 61.0983 60.9329 59.1076 52.5391 51.0348C49.6014 48.2083 48.188 42.2724 47.4525 35.868C46.3062 25.8961 46.9595 14.7586 47.0499 11.4955C47.0705 10.6898 46.9965 10.2115 46.9554 10.116C46.7624 9.6462 46.4213 9.52412 46.183 9.47781C45.8379 9.41466 45.5626 9.48201 45.3408 9.59989C45.0408 9.76155 44.7943 10.0461 44.6792 10.4852C44.6176 10.7277 44.6012 11.0654 44.6094 11.4253C44.6176 11.6749 44.6669 11.9477 44.6176 12.1266C44.2971 13.2726 43.911 14.3915 43.533 15.5185C42.2716 19.3069 40.6405 22.8571 38.8285 26.403C33.0723 37.6702 27.5052 49.5752 18.0676 58.1594C17.6445 58.5446 17.6034 59.2106 17.9814 59.6451C18.3552 60.0795 19.0044 60.1191 19.4317 59.7336C29.0582 50.9796 34.7775 38.8696 40.6487 27.3793C42.1894 24.3629 43.6028 21.3424 44.7779 18.1828C44.6587 23.7719 44.7039 31.5083 45.7023 38.3534C46.5898 44.4413 48.2784 49.8215 51.1339 52.5692C60.329 61.4128 72.3222 63.3312 80.4654 57.4164C81.3365 56.7833 82.1664 56.0869 82.9388 55.3317C87.1994 63.2146 96.3207 66.3741 104.382 62.6038C104.9 62.3625 105.126 61.7378 104.892 61.2095C104.653 60.6812 104.045 60.4479 103.527 60.6892C96.2631 64.0865 88.0253 61.0545 84.4302 53.7172ZM83.8345 51.0781C84.1673 50.5965 84.4755 50.0972 84.7631 49.5811C84.915 49.3041 85.1781 48.7715 85.2889 48.2503C85.3136 48.1283 85.3177 47.9371 85.3177 47.8488C85.0342 47.7056 84.8124 47.6365 84.6316 47.7296C84.4056 47.8441 84.2905 48.1135 84.1796 48.4145C83.9003 49.1698 83.8099 50.1708 83.8345 51.0781Z" fill="#F1FF9D"/>
</g>
</g>
</g>
<defs>
<clipPath id="clip0_8_4583">
<rect width="105" height="63.98" fill="white" transform="translate(0 0.209961)"/>
</clipPath>
<clipPath id="clip1_8_4583">
<rect width="105" height="63.98" fill="white" transform="translate(0 0.209961)"/>
</clipPath>
<clipPath id="clip2_8_4583">
<rect width="104.967" height="63.98" fill="white" transform="translate(0.0166016 0.209961)"/>
</clipPath>
</defs>
</svg>
