<svg width="107" height="65" viewBox="0 0 107 65" fill="none" xmlns="http://www.w3.org/2000/svg">
<g clip-path="url(#clip0_8_4405)">
<g clip-path="url(#clip1_8_4405)">
<g clip-path="url(#clip2_8_4405)">
<path fill-rule="evenodd" clip-rule="evenodd" d="M76.2666 61.6646C85.6384 61.8962 95.2157 61.4331 104.177 64.7168C104.711 64.9104 105.299 64.6284 105.492 64.0811C105.681 63.5339 105.405 62.9318 104.871 62.734C95.7005 59.3745 85.9054 59.7955 76.3159 59.5598C75.7489 59.5429 75.2764 60.0059 75.2641 60.587C75.2476 61.1679 75.6996 61.6478 76.2666 61.6646Z" fill="white"/>
<path fill-rule="evenodd" clip-rule="evenodd" d="M75.4243 47.7228C78.3456 44.9687 81.534 42.9055 85.3879 41.8829C85.9384 41.7373 86.2671 41.1626 86.1273 40.6001C85.9836 40.0377 85.4208 39.6997 84.8742 39.8454C80.6834 40.9567 77.2116 43.1804 74.0357 46.1732C73.6166 46.5664 73.5878 47.2328 73.974 47.6606C74.3561 48.0878 75.0094 48.116 75.4243 47.7228Z" fill="white"/>
<path fill-rule="evenodd" clip-rule="evenodd" d="M67.2976 17.6548C68.637 12.9503 71.2747 9.27008 75.3176 6.61239C75.7943 6.29876 75.9339 5.64708 75.6258 5.15832C75.3217 4.66955 74.6849 4.52725 74.2082 4.84088C69.7339 7.78357 66.8086 11.8562 65.3254 17.065C65.1651 17.6224 65.4815 18.2076 66.0239 18.3701C66.5703 18.5331 67.1414 18.2122 67.2976 17.6548Z" fill="white"/>
<path fill-rule="evenodd" clip-rule="evenodd" d="M21.137 11.2701C20.3399 12.2312 19.625 13.2668 19.0169 14.3693C18.7457 14.8602 18.2691 15.9033 18.1952 16.798C18.113 17.7511 18.4293 18.5552 19.2429 18.9787C20.3235 19.5403 21.1863 19.4817 21.8519 19.1421C22.4928 18.8158 22.994 18.1746 23.3104 17.315C23.9144 15.6718 23.824 13.1607 23.5076 11.7276C24.3581 10.8284 25.2908 10.013 26.2892 9.28803C33.7258 3.88889 44.6344 5.87974 53.0283 13.9525C55.966 16.7791 57.3794 22.715 58.1148 29.1194C59.2612 39.0912 58.6079 50.2289 58.5175 53.4919C58.4969 54.2976 58.5709 54.7759 58.612 54.8715C58.805 55.3413 59.1461 55.4634 59.3843 55.5097C59.7295 55.5728 60.0047 55.5055 60.2266 55.3876C60.5266 55.2259 60.7731 54.9413 60.8882 54.5023C60.9498 54.2597 60.9661 53.9221 60.958 53.5623C60.9498 53.3125 60.9005 53.0397 60.9498 52.8609C61.2703 51.7149 61.6564 50.596 62.0344 49.4689C63.2958 45.6805 64.9269 42.1304 66.7389 38.5844C72.4951 27.3171 78.0623 15.4121 87.4999 6.8278C87.923 6.44259 87.9641 5.7766 87.5862 5.34214C87.2123 4.90768 86.5631 4.8681 86.1358 5.25372C76.5093 14.0077 70.79 26.1178 64.9187 37.6082C63.378 40.6244 61.9645 43.6451 60.7895 46.8045C60.9087 41.2156 60.8635 33.4791 59.8651 26.6338C58.9776 20.546 57.289 15.1659 54.4335 12.418C45.2383 3.57442 33.2451 1.656 25.1018 7.57084C24.2308 8.20401 23.4008 8.90032 22.6284 9.65557C18.3678 1.77263 9.24652 -1.38689 1.18535 2.38345C0.667656 2.62467 0.441684 3.24942 0.675877 3.77776C0.914179 4.3061 1.52223 4.53933 2.03992 4.29811C9.30402 0.900757 17.5419 3.93268 21.137 11.2701ZM21.7327 13.9092C21.3999 14.3908 21.0917 14.8901 20.8041 15.4062C20.6522 15.6832 20.3891 16.2158 20.2783 16.737C20.2536 16.8591 20.2495 17.0502 20.2495 17.1386C20.533 17.2817 20.7548 17.3507 20.9356 17.2577C21.1616 17.1432 21.2767 16.8737 21.3876 16.5727C21.6669 15.8175 21.7573 14.8164 21.7327 13.9092Z" fill="white"/>
</g>
</g>
</g>
<defs>
<clipPath id="clip0_8_4405">
<rect width="106" height="64.98" fill="white" transform="translate(0.0200195)"/>
</clipPath>
<clipPath id="clip1_8_4405">
<rect width="106" height="64.98" fill="white" transform="translate(0.0200195)"/>
</clipPath>
<clipPath id="clip2_8_4405">
<rect width="105.967" height="64.98" fill="white" transform="translate(0.0361328)"/>
</clipPath>
</defs>
</svg>
