<svg width="106" height="71" viewBox="0 0 106 71" fill="none" xmlns="http://www.w3.org/2000/svg">
<g clip-path="url(#clip0_8_4786)">
<g clip-path="url(#clip1_8_4786)">
<g opacity="0.5">
<path fill-rule="evenodd" clip-rule="evenodd" d="M61.3129 64.7515C64.0491 65.3036 66.7509 65.8737 69.5017 66.3458C70.0931 66.4494 70.6517 66.0558 70.7529 65.4679C70.8566 64.8764 70.4594 64.3153 69.8716 64.2141C67.1364 63.7426 64.4572 63.178 61.7402 62.629C61.1529 62.5122 60.5826 62.8923 60.4648 63.4736C60.348 64.061 60.7256 64.6347 61.3129 64.7515Z" fill="#F1FF9D"/>
<path fill-rule="evenodd" clip-rule="evenodd" d="M53.9691 42.8663C61.6363 38.5067 69.0785 33.7623 76.6477 29.242C77.1615 28.9333 77.3276 28.2695 77.0225 27.7582C76.7138 27.2445 76.0525 27.0748 75.5353 27.381C67.9807 31.8957 60.5533 36.6346 52.8996 40.9827C52.3778 41.2802 52.1985 41.94 52.4925 42.4593C52.7901 42.9811 53.4498 43.1603 53.9691 42.8663Z" fill="#F1FF9D"/>
<path fill-rule="evenodd" clip-rule="evenodd" d="M29.3747 22.7112C32.6974 16.0362 35.8385 9.25784 39.2356 2.62018C39.5044 2.0883 39.2941 1.4373 38.7647 1.165C38.2319 0.890184 37.5783 1.10406 37.306 1.63343C33.9073 8.2807 30.7612 15.0661 27.437 21.7507C27.1717 22.2851 27.3881 22.9351 27.9225 23.2004C28.4604 23.4682 29.107 23.2491 29.3747 22.7112Z" fill="#F1FF9D"/>
</g>
</g>
</g>
<defs>
<clipPath id="clip0_8_4786">
<rect width="106" height="70" fill="white" transform="translate(0 0.0351562)"/>
</clipPath>
<clipPath id="clip1_8_4786">
<rect width="106" height="70" fill="white" transform="translate(0 0.0351562)"/>
</clipPath>
</defs>
</svg>
