<svg width="106" height="81" viewBox="0 0 106 81" fill="none" xmlns="http://www.w3.org/2000/svg">
<g clip-path="url(#clip0_8_4541)">
<g clip-path="url(#clip1_8_4541)">
<g opacity="0.5">
<path fill-rule="evenodd" clip-rule="evenodd" d="M62.5004 74.6268C65.6274 75.2578 68.7152 75.9094 71.859 76.4489C72.5349 76.5673 73.1733 76.1174 73.2888 75.4455C73.4074 74.7697 72.9535 74.1283 72.2817 74.0127C69.1557 73.4738 66.0938 72.8285 62.9887 72.2011C62.3174 72.0676 61.6657 72.502 61.531 73.1663C61.3976 73.8377 61.8291 74.4934 62.5004 74.6268Z" fill="white"/>
<path fill-rule="evenodd" clip-rule="evenodd" d="M54.1075 49.6151C62.87 44.6327 71.3753 39.2106 80.0259 34.0445C80.613 33.6918 80.8029 32.9331 80.4542 32.3488C80.1014 31.7616 79.3457 31.5678 78.7545 31.9176C70.1206 37.0774 61.6322 42.4932 52.8852 47.4625C52.2889 47.8025 52.0838 48.5566 52.4199 49.15C52.76 49.7464 53.514 49.9512 54.1075 49.6151Z" fill="white"/>
<path fill-rule="evenodd" clip-rule="evenodd" d="M25.9995 26.5806C29.7969 18.952 33.3866 11.2053 37.2692 3.61939C37.5763 3.01153 37.3359 2.26752 36.7309 1.95633C36.1219 1.64224 35.375 1.88668 35.0638 2.49167C31.1796 10.0886 27.584 17.8433 23.7849 25.4828C23.4818 26.0935 23.7291 26.8365 24.3398 27.1397C24.9546 27.4457 25.6935 27.1953 25.9995 26.5806Z" fill="white"/>
</g>
</g>
</g>
<defs>
<clipPath id="clip0_8_4541">
<rect width="106" height="80" fill="white" transform="translate(0 0.23999)"/>
</clipPath>
<clipPath id="clip1_8_4541">
<rect width="106" height="80" fill="white" transform="translate(0 0.23999)"/>
</clipPath>
</defs>
</svg>
