<svg width="65" height="70" viewBox="0 0 65 70" fill="none" xmlns="http://www.w3.org/2000/svg">
<g clip-path="url(#clip0_8_4477)">
<g clip-path="url(#clip1_8_4477)">
<g clip-path="url(#clip2_8_4477)">
<path fill-rule="evenodd" clip-rule="evenodd" d="M26.0649 14.7059C25.8774 13.5934 25.7362 12.4936 25.6449 11.3936C25.5074 9.74355 25.5924 8.08093 25.5437 6.43093C25.5224 5.73093 25.4387 3.90596 25.4724 3.64346C25.7787 1.35596 27.6249 1.00591 28.1649 0.943412C28.4261 0.905912 31.1086 0.606046 31.6874 3.58105C32.3974 7.21855 32.6249 10.881 32.3737 14.4685C32.9599 17.5185 33.9624 20.556 35.2862 23.306C40.5537 34.2435 50.5911 35.306 61.4661 35.206C63.1386 35.181 64.5274 36.4935 64.6149 38.156C64.7024 39.831 63.4574 41.281 61.7924 41.431C55.7137 42.0185 44.9286 46.8935 41.1999 51.9685C40.4199 53.031 39.9661 55.5936 39.3661 58.1061C38.5286 61.5936 37.5324 65.0435 36.4162 66.4935C36.2487 66.7185 34.2124 69.0186 33.6049 69.3561C32.1449 70.1561 30.9762 69.6935 30.3124 69.2685C29.6487 68.8435 28.8974 68.006 28.5974 66.6185C28.2837 65.1685 28.5487 62.1934 28.4999 61.5559C28.3224 59.2434 27.8599 54.706 26.9162 50.806C26.4074 48.706 25.8649 46.7685 24.9674 45.806C21.6449 42.2435 16.3324 42.7685 11.8587 43.356C11.3449 43.4185 10.8312 43.4935 10.3187 43.556C8.49742 44.0935 6.56363 44.4935 4.51988 44.731C1.43363 45.0935 0.926161 42.256 0.898661 42.0685C0.841161 41.656 0.627389 39.531 2.95364 38.681C3.20739 38.5935 5.07991 38.181 5.80116 38.0185C6.80616 37.7935 7.82239 37.6185 8.84239 37.456C19.3786 34.181 25.1012 24.9809 26.0649 14.7059ZM29.6812 26.0686C33.6587 34.2936 39.6949 38.2685 46.8499 40.0685H46.8487C42.3812 42.406 38.3174 45.3311 36.1636 48.2686C35.3461 49.3811 34.5962 51.6185 33.9199 54.131C33.5537 51.7935 33.0587 49.3059 32.4049 47.1809C31.6612 44.7559 30.6599 42.7436 29.5424 41.5436C27.3849 39.2311 24.6774 37.9435 21.7661 37.306C25.2511 34.2185 27.8937 30.3686 29.6812 26.0686Z" fill="#E4BD95"/>
</g>
</g>
</g>
<defs>
<clipPath id="clip0_8_4477">
<rect width="65" height="70" fill="white"/>
</clipPath>
<clipPath id="clip1_8_4477">
<rect width="65" height="70" fill="white"/>
</clipPath>
<clipPath id="clip2_8_4477">
<rect width="65" height="70" fill="white"/>
</clipPath>
</defs>
</svg>
